%TF.GenerationSoftware,KiCad,Pcbnew,(5.1.12)-1*%
%TF.CreationDate,2022-05-09T22:55:39+02:00*%
%TF.ProjectId,BTCPOS,42544350-4f53-42e6-9b69-6361645f7063,rev?*%
%TF.SameCoordinates,Original*%
%TF.FileFunction,Soldermask,Top*%
%TF.FilePolarity,Negative*%
%FSLAX46Y46*%
G04 Gerber Fmt 4.6, Leading zero omitted, Abs format (unit mm)*
G04 Created by KiCad (PCBNEW (5.1.12)-1) date 2022-05-09 22:55:39*
%MOMM*%
%LPD*%
G01*
G04 APERTURE LIST*
%ADD10O,1.600000X1.000000*%
%ADD11O,2.100000X0.900000*%
%ADD12C,0.650000*%
%ADD13C,0.400000*%
%ADD14C,1.524000*%
%ADD15R,1.700000X1.700000*%
%ADD16O,1.700000X1.700000*%
%ADD17C,3.000000*%
%ADD18R,3.000000X3.000000*%
%ADD19R,3.500000X3.500000*%
%ADD20C,2.500000*%
G04 APERTURE END LIST*
D10*
%TO.C,J101*%
X60995000Y-100205000D03*
X60995000Y-91565000D03*
D11*
X65175000Y-100205000D03*
X65175000Y-91565000D03*
D12*
X64675000Y-98775000D03*
X64675000Y-92995000D03*
%TD*%
D13*
%TO.C,U103*%
X97442000Y-33977600D03*
X96680000Y-33164800D03*
X95156000Y-33164800D03*
X94444800Y-33977600D03*
X94444800Y-35450800D03*
X95206800Y-36162000D03*
X96680000Y-36162000D03*
X97442000Y-35450800D03*
X96680000Y-34688800D03*
X95156000Y-34638000D03*
X95918000Y-33977600D03*
X95968800Y-35450800D03*
%TD*%
D14*
%TO.C,U102*%
X67310000Y-107950000D03*
X69850000Y-107950000D03*
X72390000Y-107950000D03*
X74930000Y-107950000D03*
X77470000Y-107950000D03*
X80010000Y-107950000D03*
X82550000Y-107950000D03*
X85090000Y-107950000D03*
X87630000Y-107950000D03*
X90170000Y-107950000D03*
X92710000Y-107950000D03*
X95250000Y-107950000D03*
X97790000Y-107950000D03*
X100330000Y-107950000D03*
%TD*%
%TO.C,D102*%
G36*
G01*
X64350001Y-180345000D02*
X63449999Y-180345000D01*
G75*
G02*
X63200000Y-180095001I0J249999D01*
G01*
X63200000Y-179444999D01*
G75*
G02*
X63449999Y-179195000I249999J0D01*
G01*
X64350001Y-179195000D01*
G75*
G02*
X64600000Y-179444999I0J-249999D01*
G01*
X64600000Y-180095001D01*
G75*
G02*
X64350001Y-180345000I-249999J0D01*
G01*
G37*
G36*
G01*
X64350001Y-178295000D02*
X63449999Y-178295000D01*
G75*
G02*
X63200000Y-178045001I0J249999D01*
G01*
X63200000Y-177394999D01*
G75*
G02*
X63449999Y-177145000I249999J0D01*
G01*
X64350001Y-177145000D01*
G75*
G02*
X64600000Y-177394999I0J-249999D01*
G01*
X64600000Y-178045001D01*
G75*
G02*
X64350001Y-178295000I-249999J0D01*
G01*
G37*
%TD*%
D15*
%TO.C,J102*%
X62150000Y-31470000D03*
D16*
X62150000Y-34010000D03*
X62150000Y-36550000D03*
X62150000Y-39090000D03*
X62150000Y-41630000D03*
X62150000Y-44170000D03*
X62150000Y-46710000D03*
X62150000Y-49250000D03*
X62150000Y-51790000D03*
X62150000Y-54330000D03*
%TD*%
D17*
%TO.C,J103*%
X103150000Y-75140000D03*
X103150000Y-70060000D03*
D18*
X103150000Y-80220000D03*
D17*
X103150000Y-64980000D03*
%TD*%
D19*
%TO.C,J104*%
X99150000Y-96920000D03*
X102150000Y-92220000D03*
X96150000Y-92220000D03*
%TD*%
D16*
%TO.C,J105*%
X68650000Y-54330000D03*
X68650000Y-51790000D03*
X68650000Y-49250000D03*
X68650000Y-46710000D03*
X68650000Y-44170000D03*
X68650000Y-41630000D03*
X68650000Y-39090000D03*
X68650000Y-36550000D03*
X68650000Y-34010000D03*
D15*
X68650000Y-31470000D03*
%TD*%
D20*
%TO.C,KBD101*%
X60800000Y-114320000D03*
D14*
X93965000Y-178316800D03*
X73645000Y-178316800D03*
X91425000Y-178316800D03*
X88885000Y-178316800D03*
X86345000Y-178316800D03*
X83805000Y-178316800D03*
X81265000Y-178316800D03*
X78725000Y-178316800D03*
X76185000Y-178316800D03*
D20*
X106800000Y-114320000D03*
X106800000Y-173320000D03*
X60800000Y-173320000D03*
%TD*%
M02*
