%TF.GenerationSoftware,KiCad,Pcbnew,(5.1.12)-1*%
%TF.CreationDate,2022-05-09T22:55:39+02:00*%
%TF.ProjectId,BTCPOS,42544350-4f53-42e6-9b69-6361645f7063,rev?*%
%TF.SameCoordinates,Original*%
%TF.FileFunction,Legend,Top*%
%TF.FilePolarity,Positive*%
%FSLAX46Y46*%
G04 Gerber Fmt 4.6, Leading zero omitted, Abs format (unit mm)*
G04 Created by KiCad (PCBNEW (5.1.12)-1) date 2022-05-09 22:55:39*
%MOMM*%
%LPD*%
G01*
G04 APERTURE LIST*
%ADD10C,0.200000*%
%ADD11C,0.120000*%
%ADD12C,0.150000*%
%ADD13C,0.095250*%
%ADD14C,0.100000*%
%ADD15C,0.080000*%
G04 APERTURE END LIST*
D10*
%TO.C,U102*%
X88167559Y-107950000D02*
G75*
G03*
X88167559Y-107950000I-537559J0D01*
G01*
X88620853Y-107950000D02*
G75*
G03*
X88620853Y-107950000I-990853J0D01*
G01*
X88139998Y-107950000D02*
G75*
G03*
X88139998Y-107950000I-509998J0D01*
G01*
X88570054Y-107950000D02*
G75*
G03*
X88570054Y-107950000I-940054J0D01*
G01*
X90707560Y-107950000D02*
G75*
G03*
X90707560Y-107950000I-537559J0D01*
G01*
X93700853Y-107950000D02*
G75*
G03*
X93700853Y-107950000I-990853J0D01*
G01*
X96240853Y-107950000D02*
G75*
G03*
X96240853Y-107950000I-990853J0D01*
G01*
X95787559Y-107950000D02*
G75*
G03*
X95787559Y-107950000I-537559J0D01*
G01*
X95759998Y-107950000D02*
G75*
G03*
X95759998Y-107950000I-509998J0D01*
G01*
X100867559Y-107950000D02*
G75*
G03*
X100867559Y-107950000I-537559J0D01*
G01*
X93650054Y-107950000D02*
G75*
G03*
X93650054Y-107950000I-940054J0D01*
G01*
X101320853Y-107950000D02*
G75*
G03*
X101320853Y-107950000I-990853J0D01*
G01*
X95787559Y-107950000D02*
G75*
G03*
X95787559Y-107950000I-537559J0D01*
G01*
X62626243Y-26949401D02*
G75*
G03*
X62626243Y-26949401I-1016001J0D01*
G01*
X101320853Y-107950000D02*
G75*
G03*
X101320853Y-107950000I-990853J0D01*
G01*
X90707560Y-107950000D02*
G75*
G03*
X90707560Y-107950000I-537559J0D01*
G01*
X91110055Y-107950000D02*
G75*
G03*
X91110055Y-107950000I-940054J0D01*
G01*
X98780854Y-107950000D02*
G75*
G03*
X98780854Y-107950000I-990853J0D01*
G01*
X100867559Y-107950000D02*
G75*
G03*
X100867559Y-107950000I-537559J0D01*
G01*
X96240853Y-107950000D02*
G75*
G03*
X96240853Y-107950000I-990853J0D01*
G01*
X107045760Y-103449120D02*
G75*
G03*
X107045760Y-103449120I-1016000J0D01*
G01*
X93247559Y-107950000D02*
G75*
G03*
X93247559Y-107950000I-537559J0D01*
G01*
X93247559Y-107950000D02*
G75*
G03*
X93247559Y-107950000I-537559J0D01*
G01*
X107045761Y-26949401D02*
G75*
G03*
X107045761Y-26949401I-1016001J0D01*
G01*
X98780854Y-107950000D02*
G75*
G03*
X98780854Y-107950000I-990853J0D01*
G01*
X93219998Y-107950000D02*
G75*
G03*
X93219998Y-107950000I-509998J0D01*
G01*
X62626242Y-103449120D02*
G75*
G03*
X62626242Y-103449120I-1016000J0D01*
G01*
X100839998Y-107950000D02*
G75*
G03*
X100839998Y-107950000I-509998J0D01*
G01*
X91160854Y-107950000D02*
G75*
G03*
X91160854Y-107950000I-990853J0D01*
G01*
X98327560Y-107950000D02*
G75*
G03*
X98327560Y-107950000I-537559J0D01*
G01*
X98327560Y-107950000D02*
G75*
G03*
X98327560Y-107950000I-537559J0D01*
G01*
X90679999Y-107950000D02*
G75*
G03*
X90679999Y-107950000I-509998J0D01*
G01*
X98730055Y-107950000D02*
G75*
G03*
X98730055Y-107950000I-940054J0D01*
G01*
X91160854Y-107950000D02*
G75*
G03*
X91160854Y-107950000I-990853J0D01*
G01*
X96190054Y-107950000D02*
G75*
G03*
X96190054Y-107950000I-940054J0D01*
G01*
X93700853Y-107950000D02*
G75*
G03*
X93700853Y-107950000I-990853J0D01*
G01*
X98299999Y-107950000D02*
G75*
G03*
X98299999Y-107950000I-509998J0D01*
G01*
X101270054Y-107950000D02*
G75*
G03*
X101270054Y-107950000I-940054J0D01*
G01*
X78460853Y-107950000D02*
G75*
G03*
X78460853Y-107950000I-990853J0D01*
G01*
X67819999Y-107950000D02*
G75*
G03*
X67819999Y-107950000I-509998J0D01*
G01*
X70790054Y-107950000D02*
G75*
G03*
X70790054Y-107950000I-940054J0D01*
G01*
X72927559Y-107950000D02*
G75*
G03*
X72927559Y-107950000I-537559J0D01*
G01*
X83087559Y-107950000D02*
G75*
G03*
X83087559Y-107950000I-537559J0D01*
G01*
X83540853Y-107950000D02*
G75*
G03*
X83540853Y-107950000I-990853J0D01*
G01*
X67847560Y-107950000D02*
G75*
G03*
X67847560Y-107950000I-537559J0D01*
G01*
X75467560Y-107950000D02*
G75*
G03*
X75467560Y-107950000I-537559J0D01*
G01*
X75920854Y-107950000D02*
G75*
G03*
X75920854Y-107950000I-990853J0D01*
G01*
X85627560Y-107950000D02*
G75*
G03*
X85627560Y-107950000I-537559J0D01*
G01*
X73380853Y-107950000D02*
G75*
G03*
X73380853Y-107950000I-990853J0D01*
G01*
X78410054Y-107950000D02*
G75*
G03*
X78410054Y-107950000I-940054J0D01*
G01*
X70359998Y-107950000D02*
G75*
G03*
X70359998Y-107950000I-509998J0D01*
G01*
X70840853Y-107950000D02*
G75*
G03*
X70840853Y-107950000I-990853J0D01*
G01*
X68300854Y-107950000D02*
G75*
G03*
X68300854Y-107950000I-990853J0D01*
G01*
X68300854Y-107950000D02*
G75*
G03*
X68300854Y-107950000I-990853J0D01*
G01*
X72899998Y-107950000D02*
G75*
G03*
X72899998Y-107950000I-509998J0D01*
G01*
X78460853Y-107950000D02*
G75*
G03*
X78460853Y-107950000I-990853J0D01*
G01*
X70840853Y-107950000D02*
G75*
G03*
X70840853Y-107950000I-990853J0D01*
G01*
X83059998Y-107950000D02*
G75*
G03*
X83059998Y-107950000I-509998J0D01*
G01*
X80547560Y-107950000D02*
G75*
G03*
X80547560Y-107950000I-537559J0D01*
G01*
X81000854Y-107950000D02*
G75*
G03*
X81000854Y-107950000I-990853J0D01*
G01*
X86080854Y-107950000D02*
G75*
G03*
X86080854Y-107950000I-990853J0D01*
G01*
X73380853Y-107950000D02*
G75*
G03*
X73380853Y-107950000I-990853J0D01*
G01*
X67847560Y-107950000D02*
G75*
G03*
X67847560Y-107950000I-537559J0D01*
G01*
X68250055Y-107950000D02*
G75*
G03*
X68250055Y-107950000I-940054J0D01*
G01*
X75870055Y-107950000D02*
G75*
G03*
X75870055Y-107950000I-940054J0D01*
G01*
X80519999Y-107950000D02*
G75*
G03*
X80519999Y-107950000I-509998J0D01*
G01*
X85627560Y-107950000D02*
G75*
G03*
X85627560Y-107950000I-537559J0D01*
G01*
X78007559Y-107950000D02*
G75*
G03*
X78007559Y-107950000I-537559J0D01*
G01*
X86080854Y-107950000D02*
G75*
G03*
X86080854Y-107950000I-990853J0D01*
G01*
X70387559Y-107950000D02*
G75*
G03*
X70387559Y-107950000I-537559J0D01*
G01*
X72927559Y-107950000D02*
G75*
G03*
X72927559Y-107950000I-537559J0D01*
G01*
X75920854Y-107950000D02*
G75*
G03*
X75920854Y-107950000I-990853J0D01*
G01*
X70387559Y-107950000D02*
G75*
G03*
X70387559Y-107950000I-537559J0D01*
G01*
X78007559Y-107950000D02*
G75*
G03*
X78007559Y-107950000I-537559J0D01*
G01*
X77979998Y-107950000D02*
G75*
G03*
X77979998Y-107950000I-509998J0D01*
G01*
X83087559Y-107950000D02*
G75*
G03*
X83087559Y-107950000I-537559J0D01*
G01*
X83540853Y-107950000D02*
G75*
G03*
X83540853Y-107950000I-990853J0D01*
G01*
X73330054Y-107950000D02*
G75*
G03*
X73330054Y-107950000I-940054J0D01*
G01*
X85599999Y-107950000D02*
G75*
G03*
X85599999Y-107950000I-509998J0D01*
G01*
X83490054Y-107950000D02*
G75*
G03*
X83490054Y-107950000I-940054J0D01*
G01*
X88167559Y-107950000D02*
G75*
G03*
X88167559Y-107950000I-537559J0D01*
G01*
X81000854Y-107950000D02*
G75*
G03*
X81000854Y-107950000I-990853J0D01*
G01*
X80950055Y-107950000D02*
G75*
G03*
X80950055Y-107950000I-940054J0D01*
G01*
X88620853Y-107950000D02*
G75*
G03*
X88620853Y-107950000I-990853J0D01*
G01*
X86030055Y-107950000D02*
G75*
G03*
X86030055Y-107950000I-940054J0D01*
G01*
X75467560Y-107950000D02*
G75*
G03*
X75467560Y-107950000I-537559J0D01*
G01*
X80547560Y-107950000D02*
G75*
G03*
X80547560Y-107950000I-537559J0D01*
G01*
X75439999Y-107950000D02*
G75*
G03*
X75439999Y-107950000I-509998J0D01*
G01*
D11*
%TO.C,D102*%
X64860000Y-180605000D02*
X64860000Y-177745000D01*
X62940000Y-180605000D02*
X64860000Y-180605000D01*
X62940000Y-177745000D02*
X62940000Y-180605000D01*
D10*
%TO.C,KBD101*%
X105334800Y-111785600D02*
X86836665Y-111785600D01*
X86836665Y-114785600D02*
X86836665Y-111785600D01*
X80832935Y-114785600D02*
X86836665Y-114785600D01*
X80832935Y-111785600D02*
X80832935Y-114785600D01*
X80832935Y-111785600D02*
X62334800Y-111785600D01*
X58334800Y-115785600D02*
X58334800Y-171785600D01*
X62334800Y-175785600D02*
X105334800Y-175785600D01*
X109334800Y-171785600D02*
X109334800Y-115785600D01*
X64834800Y-172285600D02*
X102834800Y-172285600D01*
X102834800Y-115285600D02*
X64834800Y-115285600D01*
X60834800Y-119285600D02*
X60834800Y-168285600D01*
X106834800Y-168285600D02*
X106834800Y-119285600D01*
X66134800Y-166985600D02*
X73534800Y-166985600D01*
X73534800Y-159585600D02*
X66134800Y-159585600D01*
X74034800Y-166485600D02*
X74034800Y-160085600D01*
X65634800Y-160085600D02*
X65634800Y-166485600D01*
X102034800Y-127485600D02*
X102034800Y-121085600D01*
X94134800Y-127985600D02*
X101534800Y-127985600D01*
X101534800Y-120585600D02*
X94134800Y-120585600D01*
X93634800Y-121085600D02*
X93634800Y-127485600D01*
X80134800Y-127985600D02*
X87534800Y-127985600D01*
X88034800Y-127485600D02*
X88034800Y-121085600D01*
X87534800Y-120585600D02*
X80134800Y-120585600D01*
X79634800Y-121085600D02*
X79634800Y-127485600D01*
X66134800Y-127985600D02*
X73534800Y-127985600D01*
X74034800Y-127485600D02*
X74034800Y-121085600D01*
X73534800Y-120585600D02*
X66134800Y-120585600D01*
X65634800Y-121085600D02*
X65634800Y-127485600D01*
X74034800Y-140485600D02*
X74034800Y-134085600D01*
X66134800Y-140985600D02*
X73534800Y-140985600D01*
X73534800Y-133585600D02*
X66134800Y-133585600D01*
X65634800Y-134085600D02*
X65634800Y-140485600D01*
X80134800Y-140985600D02*
X87534800Y-140985600D01*
X88034800Y-140485600D02*
X88034800Y-134085600D01*
X87534800Y-133585600D02*
X80134800Y-133585600D01*
X79634800Y-134085600D02*
X79634800Y-140485600D01*
X101534800Y-133585600D02*
X94134800Y-133585600D01*
X93634800Y-134085600D02*
X93634800Y-140485600D01*
X94134800Y-140985600D02*
X101534800Y-140985600D01*
X102034800Y-140485600D02*
X102034800Y-134085600D01*
X65634800Y-147085600D02*
X65634800Y-153485600D01*
X66134800Y-153985600D02*
X73534800Y-153985600D01*
X74034800Y-153485600D02*
X74034800Y-147085600D01*
X73534800Y-146585600D02*
X66134800Y-146585600D01*
X88034800Y-153485600D02*
X88034800Y-147085600D01*
X79634800Y-147085600D02*
X79634800Y-153485600D01*
X80134800Y-153985600D02*
X87534800Y-153985600D01*
X87534800Y-146585600D02*
X80134800Y-146585600D01*
X93634800Y-147085600D02*
X93634800Y-153485600D01*
X94134800Y-153985600D02*
X101534800Y-153985600D01*
X102034800Y-153485600D02*
X102034800Y-147085600D01*
X101534800Y-146585600D02*
X94134800Y-146585600D01*
X102034800Y-166485600D02*
X102034800Y-160085600D01*
X101534800Y-159585600D02*
X94134800Y-159585600D01*
X93634800Y-160085600D02*
X93634800Y-166485600D01*
X94134800Y-166985600D02*
X101534800Y-166985600D01*
X80134800Y-166985600D02*
X87534800Y-166985600D01*
X88034800Y-166485600D02*
X88034800Y-160085600D01*
X87534800Y-159585600D02*
X80134800Y-159585600D01*
X79634800Y-160085600D02*
X79634800Y-166485600D01*
X69909368Y-122420001D02*
X69909368Y-125920001D01*
X69262232Y-122420001D02*
X69909368Y-122420001D01*
X69595265Y-125920001D02*
X69595265Y-122778976D01*
X69909368Y-125920001D02*
X69595265Y-125920001D01*
X69056803Y-122778976D02*
X69262232Y-122420001D01*
X69595265Y-122778976D02*
X69056803Y-122778976D01*
X82719308Y-125908871D02*
X84076679Y-124460353D01*
X85097512Y-125908871D02*
X82719308Y-125908871D01*
X85097512Y-125549896D02*
X85097512Y-125908871D01*
X83468807Y-125549896D02*
X85097512Y-125549896D01*
X84344507Y-124615301D02*
X83468807Y-125549896D01*
X83168026Y-123485794D02*
X82853923Y-123485794D01*
X97584188Y-124037534D02*
X97584188Y-123678560D01*
X96597009Y-124845226D02*
X96911111Y-124845226D01*
X97045727Y-123095226D02*
X96731624Y-123095226D01*
X70572989Y-138521672D02*
X70572989Y-139329364D01*
X69215617Y-138162698D02*
X70258886Y-138162698D01*
X70509187Y-135739621D02*
X70572989Y-135739621D01*
X68598630Y-138521672D02*
X70509187Y-135739621D01*
X70258886Y-138521672D02*
X68598630Y-138521672D01*
X70258886Y-139329364D02*
X70258886Y-138521672D01*
X70572989Y-139329364D02*
X70258886Y-139329364D01*
X70976835Y-138521672D02*
X70572989Y-138521672D01*
X70976835Y-138162698D02*
X70976835Y-138521672D01*
X70572989Y-138162698D02*
X70976835Y-138162698D01*
X70572989Y-135739621D02*
X70572989Y-138162698D01*
X70258886Y-136642666D02*
X69215617Y-138162698D01*
X70258886Y-138162698D02*
X70258886Y-136642666D01*
X83569740Y-135635615D02*
X85005636Y-135635615D01*
X83210766Y-137385615D02*
X83569740Y-135635615D01*
X82851791Y-138238179D02*
X83165894Y-138238179D01*
X83815133Y-135994589D02*
X83626531Y-136915162D01*
X85005636Y-135994589D02*
X83815133Y-135994589D01*
X85005636Y-135635615D02*
X85005636Y-135994589D01*
X97263005Y-137207610D02*
X98307677Y-135610454D01*
X98549564Y-135800458D02*
X97624784Y-137214621D01*
X98307677Y-135610454D02*
X98549564Y-135800458D01*
X68801174Y-152250978D02*
X70380802Y-149169548D01*
X69072508Y-152400317D02*
X68801174Y-152250978D01*
X70912252Y-148810573D02*
X69072508Y-152400317D01*
X70380802Y-149169548D02*
X68758406Y-149169548D01*
X68758406Y-148810573D02*
X70912252Y-148810573D01*
X68758406Y-149169548D02*
X68758406Y-148810573D01*
X98468154Y-150565862D02*
X97390530Y-152141984D01*
X97139528Y-151967405D02*
X98112685Y-150544829D01*
X97390530Y-152141984D02*
X97139528Y-151967405D01*
X70255600Y-164805280D02*
X69794062Y-164805280D01*
X70255600Y-161882204D02*
X70152235Y-163094944D01*
X69904639Y-163596146D02*
X68910648Y-164304079D01*
X69904639Y-163090136D02*
X69794062Y-161882204D01*
X68910648Y-162376194D02*
X69904639Y-163090136D01*
X68640216Y-162832925D02*
X68910648Y-162376194D01*
X69794062Y-163343742D02*
X68640216Y-162832925D01*
X68640216Y-163844944D02*
X69794062Y-163343742D01*
X68910648Y-164304079D02*
X68640216Y-163844944D01*
X69794062Y-164805280D02*
X69904639Y-163596146D01*
X70152235Y-163596146D02*
X70255600Y-164805280D01*
X71140216Y-164304079D02*
X70152235Y-163596146D01*
X71409446Y-163844944D02*
X71140216Y-164304079D01*
X70152235Y-163094944D02*
X71140216Y-162376194D01*
X70279639Y-163343742D02*
X71409446Y-163844944D01*
X71409446Y-162832925D02*
X70279639Y-163343742D01*
X71140216Y-162376194D02*
X71409446Y-162832925D01*
X69794062Y-161882204D02*
X70255600Y-161882204D01*
X97309939Y-162833519D02*
X96659298Y-162833519D01*
X98447159Y-163641211D02*
X99082375Y-163641211D01*
X98499042Y-161487365D02*
X98769675Y-161487365D01*
X98330773Y-162609160D02*
X98499042Y-161487365D01*
X97614226Y-162609160D02*
X98330773Y-162609160D01*
X97782495Y-161487365D02*
X97614226Y-162609160D01*
X97511862Y-161487365D02*
X97782495Y-161487365D01*
X97343593Y-162609160D02*
X97511862Y-161487365D01*
X96659298Y-162609160D02*
X97343593Y-162609160D01*
X96659298Y-162833519D02*
X96659298Y-162609160D01*
X97188645Y-163641211D02*
X97309939Y-162833519D01*
X96569555Y-163641211D02*
X97188645Y-163641211D01*
X96973401Y-165077109D02*
X97154991Y-163865570D01*
X97244735Y-165077109D02*
X96973401Y-165077109D01*
X97426325Y-163865570D02*
X97244735Y-165077109D01*
X98413505Y-163865570D02*
X98231914Y-165077109D01*
X99082375Y-163865570D02*
X98413505Y-163865570D01*
X99082375Y-163641211D02*
X99082375Y-163865570D01*
X98175825Y-163641211D02*
X98297119Y-162833519D01*
X98297119Y-162833519D02*
X97580572Y-162833519D01*
X97580572Y-162833519D02*
X97459979Y-163641211D01*
X97459979Y-163641211D02*
X98175825Y-163641211D01*
X96569555Y-163865570D02*
X96569555Y-163641211D01*
X97154991Y-163865570D02*
X96569555Y-163865570D01*
X98142171Y-163865570D02*
X97426325Y-163865570D01*
X97960580Y-165077109D02*
X98142171Y-163865570D01*
X98231914Y-165077109D02*
X97960580Y-165077109D01*
X98567752Y-162833519D02*
X98447159Y-163641211D01*
X99172119Y-162833519D02*
X98567752Y-162833519D01*
X99172119Y-162609160D02*
X99172119Y-162833519D01*
X98601406Y-162609160D02*
X99172119Y-162609160D01*
X98769675Y-161487365D02*
X98601406Y-162609160D01*
X66484800Y-181285600D02*
X101184800Y-181285600D01*
X102184800Y-180285600D02*
X102184800Y-175785600D01*
X65484800Y-175785600D02*
X65484800Y-180285600D01*
X83534800Y-179785600D02*
X84134800Y-179785600D01*
X84634800Y-179285600D02*
X84634800Y-177285600D01*
X84134800Y-176785600D02*
X83534800Y-176785600D01*
X83034800Y-177285600D02*
X83034800Y-179285600D01*
X80994800Y-179785600D02*
X81594800Y-179785600D01*
X82094800Y-179285600D02*
X82094800Y-177285600D01*
X81594800Y-176785600D02*
X80994800Y-176785600D01*
X80494800Y-177285600D02*
X80494800Y-179285600D01*
X87174800Y-179285600D02*
X87174800Y-177285600D01*
X86674800Y-176785600D02*
X86074800Y-176785600D01*
X85574800Y-177285600D02*
X85574800Y-179285600D01*
X86074800Y-179785600D02*
X86674800Y-179785600D01*
X88614800Y-179785600D02*
X89214800Y-179785600D01*
X89714800Y-179285600D02*
X89714800Y-177285600D01*
X89214800Y-176785600D02*
X88614800Y-176785600D01*
X88114800Y-177285600D02*
X88114800Y-179285600D01*
X91754800Y-176785600D02*
X91154800Y-176785600D01*
X90654800Y-177285600D02*
X90654800Y-179285600D01*
X91154800Y-179785600D02*
X91754800Y-179785600D01*
X92254800Y-179285600D02*
X92254800Y-177285600D01*
X78454800Y-179785600D02*
X79054800Y-179785600D01*
X79554800Y-179285600D02*
X79554800Y-177285600D01*
X79054800Y-176785600D02*
X78454800Y-176785600D01*
X77954800Y-177285600D02*
X77954800Y-179285600D01*
X75914800Y-179785600D02*
X76514800Y-179785600D01*
X76514800Y-176785600D02*
X75914800Y-176785600D01*
X77014800Y-179285600D02*
X77014800Y-177285600D01*
X75414800Y-177285600D02*
X75414800Y-179285600D01*
X61984800Y-114285600D02*
G75*
G03*
X61984800Y-114285600I-1150000J0D01*
G01*
X107984799Y-114285600D02*
G75*
G03*
X107984799Y-114285600I-1149999J0D01*
G01*
X107984799Y-173285600D02*
G75*
G03*
X107984799Y-173285600I-1149999J0D01*
G01*
X61984801Y-173285600D02*
G75*
G03*
X61984801Y-173285600I-1150001J0D01*
G01*
X83178543Y-123392545D02*
X83168026Y-123485794D01*
X83195370Y-123304904D02*
X83178543Y-123392545D01*
X83217806Y-123222172D02*
X83195370Y-123304904D01*
X83246552Y-123145049D02*
X83217806Y-123222172D01*
X83281608Y-123073534D02*
X83246552Y-123145049D01*
X83322273Y-123006928D02*
X83281608Y-123073534D01*
X83368547Y-122945930D02*
X83322273Y-123006928D01*
X83421131Y-122890541D02*
X83368547Y-122945930D01*
X83478623Y-122840762D02*
X83421131Y-122890541D01*
X83539620Y-122797292D02*
X83478623Y-122840762D01*
X83604124Y-122760834D02*
X83539620Y-122797292D01*
X83672132Y-122731387D02*
X83604124Y-122760834D01*
X83743647Y-122708250D02*
X83672132Y-122731387D01*
X83818667Y-122691423D02*
X83743647Y-122708250D01*
X83897192Y-122681607D02*
X83818667Y-122691423D01*
X83979223Y-122678101D02*
X83897192Y-122681607D01*
X84057748Y-122681607D02*
X83979223Y-122678101D01*
X84132769Y-122691423D02*
X84057748Y-122681607D01*
X84204283Y-122707549D02*
X84132769Y-122691423D01*
X84273694Y-122730686D02*
X84204283Y-122707549D01*
X84339599Y-122760133D02*
X84273694Y-122730686D01*
X84401999Y-122795890D02*
X84339599Y-122760133D01*
X84461595Y-122838658D02*
X84401999Y-122795890D01*
X84518385Y-122887737D02*
X84461595Y-122838658D01*
X84570269Y-122941723D02*
X84518385Y-122887737D01*
X84614439Y-122997813D02*
X84570269Y-122941723D01*
X84652300Y-123056006D02*
X84614439Y-122997813D01*
X84683850Y-123117705D02*
X84652300Y-123056006D01*
X84707688Y-123181507D02*
X84683850Y-123117705D01*
X84724515Y-123247412D02*
X84707688Y-123181507D01*
X84735032Y-123316122D02*
X84724515Y-123247412D01*
X84738538Y-123387637D02*
X84735032Y-123316122D01*
X84730825Y-123501218D02*
X84738538Y-123387637D01*
X84707688Y-123611295D02*
X84730825Y-123501218D01*
X84668426Y-123719267D02*
X84707688Y-123611295D01*
X84613738Y-123824436D02*
X84668426Y-123719267D01*
X84577981Y-123879824D02*
X84613738Y-123824436D01*
X84533810Y-123942224D02*
X84577981Y-123879824D01*
X84479824Y-124010934D02*
X84533810Y-123942224D01*
X84417424Y-124087356D02*
X84479824Y-124010934D01*
X84345910Y-124170089D02*
X84417424Y-124087356D01*
X84265281Y-124259832D02*
X84345910Y-124170089D01*
X84175537Y-124356587D02*
X84265281Y-124259832D01*
X84076679Y-124460353D02*
X84175537Y-124356587D01*
X84444768Y-124507328D02*
X84344507Y-124615301D01*
X84536615Y-124405666D02*
X84444768Y-124507328D01*
X84619347Y-124309612D02*
X84536615Y-124405666D01*
X84694367Y-124218466D02*
X84619347Y-124309612D01*
X84760273Y-124134331D02*
X84694367Y-124218466D01*
X84817765Y-124055105D02*
X84760273Y-124134331D01*
X84866843Y-123981487D02*
X84817765Y-124055105D01*
X84907508Y-123914179D02*
X84866843Y-123981487D01*
X84971310Y-123782368D02*
X84907508Y-123914179D01*
X85016182Y-123646351D02*
X84971310Y-123782368D01*
X85043526Y-123505425D02*
X85016182Y-123646351D01*
X85052640Y-123359592D02*
X85043526Y-123505425D01*
X85047732Y-123255826D02*
X85052640Y-123359592D01*
X85034411Y-123156267D02*
X85047732Y-123255826D01*
X85011274Y-123059512D02*
X85034411Y-123156267D01*
X84979724Y-122966263D02*
X85011274Y-123059512D01*
X84938357Y-122877220D02*
X84979724Y-122966263D01*
X84887877Y-122790982D02*
X84938357Y-122877220D01*
X84828982Y-122708250D02*
X84887877Y-122790982D01*
X84760273Y-122629023D02*
X84828982Y-122708250D01*
X84684551Y-122556106D02*
X84760273Y-122629023D01*
X84602520Y-122493706D02*
X84684551Y-122556106D01*
X84515581Y-122440421D02*
X84602520Y-122493706D01*
X84423033Y-122396250D02*
X84515581Y-122440421D01*
X84324175Y-122362597D02*
X84423033Y-122396250D01*
X84220409Y-122338759D02*
X84324175Y-122362597D01*
X84110333Y-122324035D02*
X84220409Y-122338759D01*
X83995349Y-122319127D02*
X84110333Y-122324035D01*
X83878261Y-122324035D02*
X83995349Y-122319127D01*
X83766083Y-122339460D02*
X83878261Y-122324035D01*
X83658811Y-122365401D02*
X83766083Y-122339460D01*
X83555746Y-122401158D02*
X83658811Y-122365401D01*
X83458290Y-122447432D02*
X83555746Y-122401158D01*
X83365041Y-122503522D02*
X83458290Y-122447432D01*
X83275999Y-122570129D02*
X83365041Y-122503522D01*
X83192565Y-122647252D02*
X83275999Y-122570129D01*
X83116143Y-122732088D02*
X83192565Y-122647252D01*
X83049536Y-122822533D02*
X83116143Y-122732088D01*
X82992745Y-122919287D02*
X83049536Y-122822533D01*
X82945770Y-123020950D02*
X82992745Y-122919287D01*
X82907910Y-123128923D02*
X82945770Y-123020950D01*
X82880566Y-123241803D02*
X82907910Y-123128923D01*
X82862337Y-123360994D02*
X82880566Y-123241803D01*
X82853923Y-123485794D02*
X82862337Y-123360994D01*
X97077978Y-123024413D02*
X97045727Y-123095226D01*
X97111632Y-122959209D02*
X97077978Y-123024413D01*
X97146688Y-122899613D02*
X97111632Y-122959209D01*
X97184549Y-122844926D02*
X97146688Y-122899613D01*
X97223110Y-122795146D02*
X97184549Y-122844926D01*
X97263775Y-122751677D02*
X97223110Y-122795146D01*
X97305843Y-122713115D02*
X97263775Y-122751677D01*
X97350013Y-122679461D02*
X97305843Y-122713115D01*
X97444665Y-122625475D02*
X97350013Y-122679461D01*
X97547029Y-122587614D02*
X97444665Y-122625475D01*
X97658507Y-122564477D02*
X97547029Y-122587614D01*
X97777698Y-122556765D02*
X97658507Y-122564477D01*
X97852017Y-122559569D02*
X97777698Y-122556765D01*
X97923531Y-122567282D02*
X97852017Y-122559569D01*
X97991540Y-122579902D02*
X97923531Y-122567282D01*
X98056043Y-122597430D02*
X97991540Y-122579902D01*
X98117742Y-122620567D02*
X98056043Y-122597430D01*
X98175935Y-122648612D02*
X98117742Y-122620567D01*
X98230622Y-122681565D02*
X98175935Y-122648612D01*
X98281804Y-122720126D02*
X98230622Y-122681565D01*
X98328779Y-122761492D02*
X98281804Y-122720126D01*
X98369444Y-122804962D02*
X98328779Y-122761492D01*
X98403799Y-122850535D02*
X98369444Y-122804962D01*
X98431844Y-122897510D02*
X98403799Y-122850535D01*
X98453579Y-122947290D02*
X98431844Y-122897510D01*
X98469004Y-122997771D02*
X98453579Y-122947290D01*
X98478819Y-123051056D02*
X98469004Y-122997771D01*
X98481624Y-123105743D02*
X98478819Y-123051056D01*
X98475314Y-123180062D02*
X98481624Y-123105743D01*
X98457085Y-123251577D02*
X98475314Y-123180062D01*
X98426235Y-123319585D02*
X98457085Y-123251577D01*
X98382766Y-123385491D02*
X98426235Y-123319585D01*
X98325975Y-123446488D02*
X98382766Y-123385491D01*
X98254460Y-123501877D02*
X98325975Y-123446488D01*
X98168223Y-123551657D02*
X98254460Y-123501877D01*
X98066560Y-123595827D02*
X98168223Y-123551657D01*
X97955081Y-123632286D02*
X98066560Y-123595827D01*
X97837293Y-123657526D02*
X97955081Y-123632286D01*
X97713896Y-123673652D02*
X97837293Y-123657526D01*
X97584188Y-123678560D02*
X97713896Y-123673652D01*
X97687253Y-124043844D02*
X97584188Y-124037534D01*
X97784008Y-124052258D02*
X97687253Y-124043844D01*
X97873050Y-124062775D02*
X97784008Y-124052258D01*
X97955081Y-124075395D02*
X97873050Y-124062775D01*
X98030803Y-124090118D02*
X97955081Y-124075395D01*
X98098811Y-124106244D02*
X98030803Y-124090118D01*
X98160510Y-124125174D02*
X98098811Y-124106244D01*
X98214497Y-124146208D02*
X98160510Y-124125174D01*
X98311251Y-124195287D02*
X98214497Y-124146208D01*
X98398190Y-124254882D02*
X98311251Y-124195287D01*
X98473912Y-124325695D02*
X98398190Y-124254882D01*
X98539817Y-124407025D02*
X98473912Y-124325695D01*
X98593102Y-124494666D02*
X98539817Y-124407025D01*
X98630963Y-124585811D02*
X98593102Y-124494666D01*
X98653399Y-124680463D02*
X98630963Y-124585811D01*
X98661111Y-124777919D02*
X98653399Y-124680463D01*
X98657606Y-124850835D02*
X98661111Y-124777919D01*
X98645686Y-124921649D02*
X98657606Y-124850835D01*
X98626756Y-124990359D02*
X98645686Y-124921649D01*
X98600114Y-125056264D02*
X98626756Y-124990359D01*
X98565759Y-125120066D02*
X98600114Y-125056264D01*
X98523691Y-125181064D02*
X98565759Y-125120066D01*
X98473912Y-125239958D02*
X98523691Y-125181064D01*
X98416420Y-125296749D02*
X98473912Y-125239958D01*
X98352618Y-125348632D02*
X98416420Y-125296749D01*
X98284609Y-125393504D02*
X98352618Y-125348632D01*
X98210991Y-125432065D02*
X98284609Y-125393504D01*
X98133166Y-125462915D02*
X98210991Y-125432065D01*
X98049733Y-125487454D02*
X98133166Y-125462915D01*
X97961392Y-125504281D02*
X98049733Y-125487454D01*
X97868142Y-125514798D02*
X97961392Y-125504281D01*
X97769985Y-125518303D02*
X97868142Y-125514798D01*
X97683046Y-125515499D02*
X97769985Y-125518303D01*
X97600314Y-125506384D02*
X97683046Y-125515499D01*
X97521087Y-125491661D02*
X97600314Y-125506384D01*
X97446067Y-125470627D02*
X97521087Y-125491661D01*
X97375254Y-125444686D02*
X97446067Y-125470627D01*
X97307946Y-125411733D02*
X97375254Y-125444686D01*
X97244845Y-125373171D02*
X97307946Y-125411733D01*
X97185250Y-125329000D02*
X97244845Y-125373171D01*
X97141780Y-125289037D02*
X97185250Y-125329000D01*
X97101115Y-125242763D02*
X97141780Y-125289037D01*
X97062553Y-125190879D02*
X97101115Y-125242763D01*
X97027497Y-125133388D02*
X97062553Y-125190879D01*
X96994545Y-125070287D02*
X97027497Y-125133388D01*
X96963695Y-125000875D02*
X96994545Y-125070287D01*
X96936352Y-124925855D02*
X96963695Y-125000875D01*
X96911111Y-124845226D02*
X96936352Y-124925855D01*
X96623651Y-124968624D02*
X96597009Y-124845226D01*
X96657305Y-125083608D02*
X96623651Y-124968624D01*
X96697269Y-125191581D02*
X96657305Y-125083608D01*
X96744244Y-125291140D02*
X96697269Y-125191581D01*
X96797529Y-125383688D02*
X96744244Y-125291140D01*
X96857826Y-125468524D02*
X96797529Y-125383688D01*
X96924432Y-125545647D02*
X96857826Y-125468524D01*
X96998050Y-125615058D02*
X96924432Y-125545647D01*
X97077277Y-125676757D02*
X96998050Y-125615058D01*
X97161412Y-125730042D02*
X97077277Y-125676757D01*
X97249753Y-125774914D02*
X97161412Y-125730042D01*
X97343002Y-125811372D02*
X97249753Y-125774914D01*
X97441159Y-125840118D02*
X97343002Y-125811372D01*
X97544224Y-125861152D02*
X97441159Y-125840118D01*
X97652197Y-125873071D02*
X97544224Y-125861152D01*
X97764376Y-125877278D02*
X97652197Y-125873071D01*
X97930542Y-125868163D02*
X97764376Y-125877278D01*
X98088996Y-125840118D02*
X97930542Y-125868163D01*
X98239036Y-125794545D02*
X98088996Y-125840118D01*
X98380662Y-125730042D02*
X98239036Y-125794545D01*
X98511071Y-125648712D02*
X98380662Y-125730042D01*
X98627457Y-125551957D02*
X98511071Y-125648712D01*
X98728419Y-125440479D02*
X98627457Y-125551957D01*
X98815358Y-125313576D02*
X98728419Y-125440479D01*
X98885470Y-125177558D02*
X98815358Y-125313576D01*
X98935250Y-125037334D02*
X98885470Y-125177558D01*
X98965398Y-124894305D02*
X98935250Y-125037334D01*
X98975214Y-124747771D02*
X98965398Y-124894305D01*
X98971708Y-124662935D02*
X98975214Y-124747771D01*
X98961892Y-124579501D02*
X98971708Y-124662935D01*
X98945767Y-124498872D02*
X98961892Y-124579501D01*
X98923331Y-124420347D02*
X98945767Y-124498872D01*
X98893884Y-124343223D02*
X98923331Y-124420347D01*
X98857425Y-124268904D02*
X98893884Y-124343223D01*
X98815358Y-124195988D02*
X98857425Y-124268904D01*
X98766279Y-124125875D02*
X98815358Y-124195988D01*
X98687053Y-124033327D02*
X98766279Y-124125875D01*
X98597309Y-123952698D02*
X98687053Y-124033327D01*
X98497049Y-123883988D02*
X98597309Y-123952698D01*
X98386973Y-123827198D02*
X98497049Y-123883988D01*
X98483026Y-123757787D02*
X98386973Y-123827198D01*
X98565759Y-123682767D02*
X98483026Y-123757787D01*
X98635871Y-123601436D02*
X98565759Y-123682767D01*
X98693363Y-123514497D02*
X98635871Y-123601436D01*
X98738235Y-123421248D02*
X98693363Y-123514497D01*
X98770486Y-123322390D02*
X98738235Y-123421248D01*
X98789416Y-123217923D02*
X98770486Y-123322390D01*
X98795727Y-123107146D02*
X98789416Y-123217923D01*
X98787313Y-122992162D02*
X98795727Y-123107146D01*
X98762774Y-122879982D02*
X98787313Y-122992162D01*
X98721408Y-122769906D02*
X98762774Y-122879982D01*
X98663916Y-122661933D02*
X98721408Y-122769906D01*
X98590999Y-122560972D02*
X98663916Y-122661933D01*
X98504761Y-122470527D02*
X98590999Y-122560972D01*
X98405202Y-122391300D02*
X98504761Y-122470527D01*
X98291620Y-122323291D02*
X98405202Y-122391300D01*
X98168924Y-122268604D02*
X98291620Y-122323291D01*
X98042021Y-122229341D02*
X98168924Y-122268604D01*
X97910210Y-122205503D02*
X98042021Y-122229341D01*
X97773491Y-122197791D02*
X97910210Y-122205503D01*
X97679541Y-122201296D02*
X97773491Y-122197791D01*
X97589096Y-122212514D02*
X97679541Y-122201296D01*
X97501456Y-122230743D02*
X97589096Y-122212514D01*
X97416620Y-122255984D02*
X97501456Y-122230743D01*
X97335290Y-122288936D02*
X97416620Y-122255984D01*
X97257465Y-122328900D02*
X97335290Y-122288936D01*
X97182445Y-122375875D02*
X97257465Y-122328900D01*
X97110931Y-122430563D02*
X97182445Y-122375875D01*
X97043623Y-122491561D02*
X97110931Y-122430563D01*
X96981924Y-122559569D02*
X97043623Y-122491561D01*
X96925835Y-122633187D02*
X96981924Y-122559569D01*
X96876055Y-122713115D02*
X96925835Y-122633187D01*
X96831183Y-122799353D02*
X96876055Y-122713115D01*
X96792622Y-122891901D02*
X96831183Y-122799353D01*
X96758968Y-122990058D02*
X96792622Y-122891901D01*
X96731624Y-123095226D02*
X96758968Y-122990058D01*
X82870020Y-138344749D02*
X82851791Y-138238179D01*
X82895261Y-138446412D02*
X82870020Y-138344749D01*
X82927512Y-138543167D02*
X82895261Y-138446412D01*
X82967476Y-138634313D02*
X82927512Y-138543167D01*
X83015153Y-138721252D02*
X82967476Y-138634313D01*
X83069840Y-138802582D02*
X83015153Y-138721252D01*
X83131539Y-138879004D02*
X83069840Y-138802582D01*
X83200950Y-138950519D02*
X83131539Y-138879004D01*
X83275970Y-139015022D02*
X83200950Y-138950519D01*
X83355898Y-139070411D02*
X83275970Y-139015022D01*
X83439331Y-139118087D02*
X83355898Y-139070411D01*
X83526972Y-139156648D02*
X83439331Y-139118087D01*
X83618819Y-139186797D02*
X83526972Y-139156648D01*
X83714872Y-139207830D02*
X83618819Y-139186797D01*
X83815133Y-139221152D02*
X83714872Y-139207830D01*
X83919599Y-139225358D02*
X83815133Y-139221152D01*
X83322244Y-137343548D02*
X83210766Y-137385615D01*
X83428815Y-137307089D02*
X83322244Y-137343548D01*
X83531879Y-137276240D02*
X83428815Y-137307089D01*
X83630036Y-137250999D02*
X83531879Y-137276240D01*
X83724688Y-137231368D02*
X83630036Y-137250999D01*
X83814431Y-137217346D02*
X83724688Y-137231368D01*
X83900668Y-137208932D02*
X83814431Y-137217346D01*
X83981999Y-137206128D02*
X83900668Y-137208932D01*
X84075949Y-137209633D02*
X83981999Y-137206128D01*
X84164290Y-137219449D02*
X84075949Y-137209633D01*
X84248425Y-137236276D02*
X84164290Y-137219449D01*
X84327652Y-137259413D02*
X84248425Y-137236276D01*
X84401971Y-137290262D02*
X84327652Y-137259413D01*
X84471382Y-137326721D02*
X84401971Y-137290262D01*
X84536586Y-137370190D02*
X84471382Y-137326721D01*
X84596181Y-137420671D02*
X84536586Y-137370190D01*
X84650168Y-137476060D02*
X84596181Y-137420671D01*
X84697143Y-137535655D02*
X84650168Y-137476060D01*
X84736406Y-137599457D02*
X84697143Y-137535655D01*
X84768657Y-137667466D02*
X84736406Y-137599457D01*
X84793898Y-137738980D02*
X84768657Y-137667466D01*
X84812127Y-137814701D02*
X84793898Y-137738980D01*
X84822644Y-137894629D02*
X84812127Y-137814701D01*
X84826149Y-137978764D02*
X84822644Y-137894629D01*
X84821943Y-138072013D02*
X84826149Y-137978764D01*
X84810023Y-138161056D02*
X84821943Y-138072013D01*
X84789691Y-138245891D02*
X84810023Y-138161056D01*
X84760945Y-138327221D02*
X84789691Y-138245891D01*
X84723785Y-138404345D02*
X84760945Y-138327221D01*
X84678914Y-138477963D02*
X84723785Y-138404345D01*
X84625628Y-138547374D02*
X84678914Y-138477963D01*
X84564631Y-138612578D02*
X84625628Y-138547374D01*
X84497323Y-138672173D02*
X84564631Y-138612578D01*
X84427211Y-138723355D02*
X84497323Y-138672173D01*
X84353593Y-138767526D02*
X84427211Y-138723355D01*
X84277171Y-138802582D02*
X84353593Y-138767526D01*
X84197243Y-138830627D02*
X84277171Y-138802582D01*
X84113809Y-138850258D02*
X84197243Y-138830627D01*
X84027572Y-138862177D02*
X84113809Y-138850258D01*
X83937828Y-138866384D02*
X84027572Y-138862177D01*
X83845981Y-138861476D02*
X83937828Y-138866384D01*
X83756238Y-138846052D02*
X83845981Y-138861476D01*
X83667897Y-138821512D02*
X83756238Y-138846052D01*
X83582360Y-138786456D02*
X83667897Y-138821512D01*
X83501731Y-138743688D02*
X83582360Y-138786456D01*
X83429516Y-138693908D02*
X83501731Y-138743688D01*
X83365714Y-138638519D02*
X83429516Y-138693908D01*
X83310325Y-138576821D02*
X83365714Y-138638519D01*
X83263350Y-138506709D02*
X83310325Y-138576821D01*
X83223386Y-138426781D02*
X83263350Y-138506709D01*
X83191134Y-138337738D02*
X83223386Y-138426781D01*
X83165894Y-138238179D02*
X83191134Y-138337738D01*
X84007239Y-139223255D02*
X83919599Y-139225358D01*
X84092776Y-139215543D02*
X84007239Y-139223255D01*
X84175508Y-139203624D02*
X84092776Y-139215543D01*
X84255436Y-139186797D02*
X84175508Y-139203624D01*
X84332559Y-139165062D02*
X84255436Y-139186797D01*
X84406878Y-139138419D02*
X84332559Y-139165062D01*
X84479094Y-139107570D02*
X84406878Y-139138419D01*
X84548505Y-139071112D02*
X84479094Y-139107570D01*
X84615112Y-139030447D02*
X84548505Y-139071112D01*
X84677511Y-138985575D02*
X84615112Y-139030447D01*
X84737107Y-138936496D02*
X84677511Y-138985575D01*
X84793197Y-138883211D02*
X84737107Y-138936496D01*
X84845080Y-138825719D02*
X84793197Y-138883211D01*
X84893457Y-138764020D02*
X84845080Y-138825719D01*
X84939030Y-138698115D02*
X84893457Y-138764020D01*
X84980396Y-138628003D02*
X84939030Y-138698115D01*
X85017555Y-138554385D02*
X84980396Y-138628003D01*
X85050508Y-138479365D02*
X85017555Y-138554385D01*
X85077852Y-138402943D02*
X85050508Y-138479365D01*
X85100288Y-138324417D02*
X85077852Y-138402943D01*
X85117816Y-138243788D02*
X85100288Y-138324417D01*
X85130436Y-138161757D02*
X85117816Y-138243788D01*
X85137447Y-138077622D02*
X85130436Y-138161757D01*
X85140252Y-137992085D02*
X85137447Y-138077622D01*
X85135344Y-137869389D02*
X85140252Y-137992085D01*
X85120620Y-137752302D02*
X85135344Y-137869389D01*
X85096782Y-137640823D02*
X85120620Y-137752302D01*
X85062427Y-137534954D02*
X85096782Y-137640823D01*
X85018958Y-137435394D02*
X85062427Y-137534954D01*
X84964971Y-137340743D02*
X85018958Y-137435394D01*
X84901870Y-137252402D02*
X84964971Y-137340743D01*
X84828954Y-137168968D02*
X84901870Y-137252402D01*
X84748325Y-137093247D02*
X84828954Y-137168968D01*
X84662788Y-137028043D02*
X84748325Y-137093247D01*
X84572343Y-136972654D02*
X84662788Y-137028043D01*
X84476289Y-136927782D02*
X84572343Y-136972654D01*
X84374627Y-136892726D02*
X84476289Y-136927782D01*
X84268056Y-136867486D02*
X84374627Y-136892726D01*
X84155877Y-136852061D02*
X84268056Y-136867486D01*
X84038789Y-136847153D02*
X84155877Y-136852061D01*
X83944138Y-136851360D02*
X84038789Y-136847153D01*
X83843878Y-136863980D02*
X83944138Y-136851360D01*
X83738009Y-136885715D02*
X83843878Y-136863980D01*
X83626531Y-136915162D02*
X83738009Y-136885715D01*
X98001988Y-137543447D02*
X97921359Y-137539942D01*
X98079111Y-137552562D02*
X98001988Y-137543447D01*
X98153430Y-137568688D02*
X98079111Y-137552562D01*
X98224945Y-137590422D02*
X98153430Y-137568688D01*
X98292953Y-137619168D02*
X98224945Y-137590422D01*
X98358158Y-137654224D02*
X98292953Y-137619168D01*
X98420558Y-137695591D02*
X98358158Y-137654224D01*
X98480153Y-137743267D02*
X98420558Y-137695591D01*
X98534139Y-137795150D02*
X98480153Y-137743267D01*
X98581114Y-137850539D02*
X98534139Y-137795150D01*
X98621078Y-137908031D02*
X98581114Y-137850539D01*
X98654031Y-137968327D02*
X98621078Y-137908031D01*
X98679271Y-138031428D02*
X98654031Y-137968327D01*
X98696800Y-138097333D02*
X98679271Y-138031428D01*
X98708017Y-138165342D02*
X98696800Y-138097333D01*
X98711523Y-138236857D02*
X98708017Y-138165342D01*
X97210421Y-137288940D02*
X97263005Y-137207610D01*
X97161343Y-137367466D02*
X97210421Y-137288940D01*
X97117172Y-137442486D02*
X97161343Y-137367466D01*
X97076507Y-137515402D02*
X97117172Y-137442486D01*
X97040750Y-137584813D02*
X97076507Y-137515402D01*
X97008498Y-137650719D02*
X97040750Y-137584813D01*
X96981154Y-137714521D02*
X97008498Y-137650719D01*
X96957316Y-137774817D02*
X96981154Y-137714521D01*
X96920157Y-137891204D02*
X96957316Y-137774817D01*
X96893514Y-138004785D02*
X96920157Y-137891204D01*
X96877388Y-138116264D02*
X96893514Y-138004785D01*
X96871779Y-138224236D02*
X96877388Y-138116264D01*
X98078410Y-139280827D02*
X97931876Y-139289942D01*
X98219336Y-139254184D02*
X98078410Y-139280827D01*
X98356054Y-139209313D02*
X98219336Y-139254184D01*
X98487164Y-139146913D02*
X98356054Y-139209313D01*
X98609159Y-139069088D02*
X98487164Y-139146913D01*
X98715730Y-138978643D02*
X98609159Y-139069088D01*
X98808278Y-138876280D02*
X98715730Y-138978643D01*
X98885401Y-138761296D02*
X98808278Y-138876280D01*
X98947100Y-138635795D02*
X98885401Y-138761296D01*
X98990570Y-138503984D02*
X98947100Y-138635795D01*
X99017212Y-138364461D02*
X98990570Y-138503984D01*
X99025626Y-138217926D02*
X99017212Y-138364461D01*
X96880894Y-138365162D02*
X96871779Y-138224236D01*
X96906836Y-138501881D02*
X96880894Y-138365162D01*
X96951006Y-138633692D02*
X96906836Y-138501881D01*
X97012004Y-138761997D02*
X96951006Y-138633692D01*
X97088426Y-138880486D02*
X97012004Y-138761997D01*
X97178871Y-138984954D02*
X97088426Y-138880486D01*
X97281936Y-139075398D02*
X97178871Y-138984954D01*
X97398322Y-139151821D02*
X97281936Y-139075398D01*
X97523823Y-139212117D02*
X97398322Y-139151821D01*
X97654933Y-139255587D02*
X97523823Y-139212117D01*
X97790950Y-139281528D02*
X97654933Y-139255587D01*
X97931876Y-139289942D02*
X97790950Y-139281528D01*
X99020718Y-138110655D02*
X99025626Y-138217926D01*
X99006695Y-138007590D02*
X99020718Y-138110655D01*
X98982857Y-137908732D02*
X99006695Y-138007590D01*
X98949904Y-137814080D02*
X98982857Y-137908732D01*
X98907837Y-137724337D02*
X98949904Y-137814080D01*
X98855954Y-137638800D02*
X98907837Y-137724337D01*
X98794255Y-137557470D02*
X98855954Y-137638800D01*
X98723442Y-137480346D02*
X98794255Y-137557470D01*
X98645618Y-137410234D02*
X98723442Y-137480346D01*
X98564288Y-137349236D02*
X98645618Y-137410234D01*
X98478050Y-137298055D02*
X98564288Y-137349236D01*
X98388306Y-137255987D02*
X98478050Y-137298055D01*
X98294356Y-137223035D02*
X98388306Y-137255987D01*
X98196199Y-137199897D02*
X98294356Y-137223035D01*
X98093835Y-137185875D02*
X98196199Y-137199897D01*
X97987264Y-137180967D02*
X98093835Y-137185875D01*
X97809880Y-137189381D02*
X97987264Y-137180967D01*
X97624784Y-137214621D02*
X97809880Y-137189381D01*
X97189388Y-138165342D02*
X97185882Y-138236857D01*
X97198502Y-138097333D02*
X97189388Y-138165342D01*
X97214628Y-138031428D02*
X97198502Y-138097333D01*
X97237064Y-137968327D02*
X97214628Y-138031428D01*
X97265810Y-137908031D02*
X97237064Y-137968327D01*
X97300866Y-137850539D02*
X97265810Y-137908031D01*
X97342232Y-137795150D02*
X97300866Y-137850539D01*
X97389909Y-137743267D02*
X97342232Y-137795150D01*
X97443194Y-137695591D02*
X97389909Y-137743267D01*
X97499985Y-137654224D02*
X97443194Y-137695591D01*
X97560281Y-137619168D02*
X97499985Y-137654224D01*
X97624784Y-137590422D02*
X97560281Y-137619168D01*
X97693494Y-137568688D02*
X97624784Y-137590422D01*
X97765710Y-137552562D02*
X97693494Y-137568688D01*
X97841431Y-137543447D02*
X97765710Y-137552562D01*
X97921359Y-137539942D02*
X97841431Y-137543447D01*
X98708017Y-138307670D02*
X98711523Y-138236857D01*
X98697501Y-138374978D02*
X98708017Y-138307670D01*
X98679973Y-138440883D02*
X98697501Y-138374978D01*
X98655433Y-138503283D02*
X98679973Y-138440883D01*
X98623883Y-138563579D02*
X98655433Y-138503283D01*
X98586022Y-138620370D02*
X98623883Y-138563579D01*
X98540449Y-138675759D02*
X98586022Y-138620370D01*
X98487865Y-138727642D02*
X98540449Y-138675759D01*
X98430373Y-138775318D02*
X98487865Y-138727642D01*
X98370778Y-138816684D02*
X98430373Y-138775318D01*
X98307677Y-138851740D02*
X98370778Y-138816684D01*
X98241771Y-138879785D02*
X98307677Y-138851740D01*
X98173062Y-138902221D02*
X98241771Y-138879785D01*
X98100846Y-138918347D02*
X98173062Y-138902221D01*
X98026527Y-138927462D02*
X98100846Y-138918347D01*
X97948703Y-138930967D02*
X98026527Y-138927462D01*
X97870878Y-138927462D02*
X97948703Y-138930967D01*
X97796559Y-138918347D02*
X97870878Y-138927462D01*
X97724344Y-138902221D02*
X97796559Y-138918347D01*
X97655634Y-138879785D02*
X97724344Y-138902221D01*
X97589728Y-138851740D02*
X97655634Y-138879785D01*
X97526627Y-138816684D02*
X97589728Y-138851740D01*
X97466331Y-138775318D02*
X97526627Y-138816684D01*
X97408839Y-138727642D02*
X97466331Y-138775318D01*
X97356255Y-138675759D02*
X97408839Y-138727642D01*
X97311383Y-138620370D02*
X97356255Y-138675759D01*
X97272821Y-138563579D02*
X97311383Y-138620370D01*
X97241972Y-138503283D02*
X97272821Y-138563579D01*
X97217433Y-138440883D02*
X97241972Y-138503283D01*
X97199904Y-138374978D02*
X97217433Y-138440883D01*
X97189388Y-138307670D02*
X97199904Y-138374978D01*
X97185882Y-138236857D02*
X97189388Y-138307670D01*
X84077351Y-148824276D02*
X83994619Y-148821471D01*
X84154475Y-148831988D02*
X84077351Y-148824276D01*
X84226690Y-148845310D02*
X84154475Y-148831988D01*
X84293998Y-148863539D02*
X84226690Y-148845310D01*
X84356398Y-148887377D02*
X84293998Y-148863539D01*
X84413890Y-148916824D02*
X84356398Y-148887377D01*
X84465773Y-148951179D02*
X84413890Y-148916824D01*
X84512748Y-148990442D02*
X84465773Y-148951179D01*
X84554815Y-149033210D02*
X84512748Y-148990442D01*
X84591273Y-149076680D02*
X84554815Y-149033210D01*
X84621422Y-149120850D02*
X84591273Y-149076680D01*
X84646662Y-149166423D02*
X84621422Y-149120850D01*
X84666293Y-149213399D02*
X84646662Y-149166423D01*
X84680316Y-149260374D02*
X84666293Y-149213399D01*
X84688729Y-149308751D02*
X84680316Y-149260374D01*
X84691534Y-149358531D02*
X84688729Y-149308751D01*
X83937828Y-149940462D02*
X84007239Y-149943266D01*
X83870520Y-149932048D02*
X83937828Y-149940462D01*
X83805317Y-149918026D02*
X83870520Y-149932048D01*
X83742216Y-149898395D02*
X83805317Y-149918026D01*
X83681218Y-149873154D02*
X83742216Y-149898395D01*
X83623025Y-149843006D02*
X83681218Y-149873154D01*
X83566234Y-149806548D02*
X83623025Y-149843006D01*
X83512248Y-149764480D02*
X83566234Y-149806548D01*
X83462468Y-149718907D02*
X83512248Y-149764480D01*
X83419700Y-149672633D02*
X83462468Y-149718907D01*
X83383242Y-149624256D02*
X83419700Y-149672633D01*
X83353794Y-149575177D02*
X83383242Y-149624256D01*
X83329956Y-149524697D02*
X83353794Y-149575177D01*
X83313831Y-149472814D02*
X83329956Y-149524697D01*
X83304015Y-149420229D02*
X83313831Y-149472814D01*
X83300509Y-149365542D02*
X83304015Y-149420229D01*
X83409183Y-150149396D02*
X83497524Y-150102421D01*
X83327853Y-150198475D02*
X83409183Y-150149396D01*
X83252132Y-150248955D02*
X83327853Y-150198475D01*
X83183422Y-150301540D02*
X83252132Y-150248955D01*
X83120321Y-150355526D02*
X83183422Y-150301540D01*
X83063530Y-150410915D02*
X83120321Y-150355526D01*
X83013750Y-150467705D02*
X83063530Y-150410915D01*
X82969580Y-150526600D02*
X83013750Y-150467705D01*
X82931719Y-150586896D02*
X82969580Y-150526600D01*
X82898766Y-150649296D02*
X82931719Y-150586896D01*
X82870722Y-150713098D02*
X82898766Y-150649296D01*
X82847585Y-150779003D02*
X82870722Y-150713098D01*
X82830056Y-150847012D02*
X82847585Y-150779003D01*
X82817436Y-150916423D02*
X82830056Y-150847012D01*
X82809724Y-150987938D02*
X82817436Y-150916423D01*
X82806919Y-151061556D02*
X82809724Y-150987938D01*
X83125229Y-150996351D02*
X83121022Y-151072072D01*
X83137148Y-150922733D02*
X83125229Y-150996351D01*
X83156779Y-150851920D02*
X83137148Y-150922733D01*
X83185525Y-150783210D02*
X83156779Y-150851920D01*
X83221282Y-150717305D02*
X83185525Y-150783210D01*
X83265453Y-150653503D02*
X83221282Y-150717305D01*
X83317336Y-150592505D02*
X83265453Y-150653503D01*
X83377633Y-150533611D02*
X83317336Y-150592505D01*
X83443538Y-150479624D02*
X83377633Y-150533611D01*
X83513650Y-150432649D02*
X83443538Y-150479624D01*
X83587969Y-150392685D02*
X83513650Y-150432649D01*
X83665794Y-150359733D02*
X83587969Y-150392685D01*
X83747124Y-150334492D02*
X83665794Y-150359733D01*
X83832661Y-150316964D02*
X83747124Y-150334492D01*
X83921702Y-150305746D02*
X83832661Y-150316964D01*
X84014951Y-150302241D02*
X83921702Y-150305746D01*
X84624927Y-150033010D02*
X84508541Y-150102421D01*
X84726590Y-149956588D02*
X84624927Y-150033010D01*
X84811426Y-149875258D02*
X84726590Y-149956588D01*
X84881538Y-149786916D02*
X84811426Y-149875258D01*
X84935524Y-149692265D02*
X84881538Y-149786916D01*
X84974787Y-149591303D02*
X84935524Y-149692265D01*
X84997924Y-149484032D02*
X84974787Y-149591303D01*
X85005636Y-149370450D02*
X84997924Y-149484032D01*
X84997223Y-149254765D02*
X85005636Y-149370450D01*
X84972684Y-149141884D02*
X84997223Y-149254765D01*
X84932019Y-149031107D02*
X84972684Y-149141884D01*
X84874527Y-148923835D02*
X84932019Y-149031107D01*
X84803012Y-148822874D02*
X84874527Y-148923835D01*
X84718878Y-148733130D02*
X84803012Y-148822874D01*
X84622824Y-148653903D02*
X84718878Y-148733130D01*
X84513449Y-148586596D02*
X84622824Y-148653903D01*
X84395660Y-148532609D02*
X84513449Y-148586596D01*
X84272964Y-148493346D02*
X84395660Y-148532609D01*
X84145360Y-148470209D02*
X84272964Y-148493346D01*
X84012147Y-148462497D02*
X84145360Y-148470209D01*
X83875428Y-148470209D02*
X84012147Y-148462497D01*
X83744319Y-148493346D02*
X83875428Y-148470209D01*
X83617416Y-148531207D02*
X83744319Y-148493346D01*
X83495421Y-148585193D02*
X83617416Y-148531207D01*
X83382540Y-148652501D02*
X83495421Y-148585193D01*
X83282981Y-148731027D02*
X83382540Y-148652501D01*
X83196042Y-148820770D02*
X83282981Y-148731027D01*
X83121723Y-148922433D02*
X83196042Y-148820770D01*
X83062829Y-149029705D02*
X83121723Y-148922433D01*
X83020060Y-149139080D02*
X83062829Y-149029705D01*
X82994820Y-149249156D02*
X83020060Y-149139080D01*
X82986407Y-149360634D02*
X82994820Y-149249156D01*
X82994119Y-149470009D02*
X82986407Y-149360634D01*
X83018658Y-149575878D02*
X82994119Y-149470009D01*
X83057921Y-149678242D02*
X83018658Y-149575878D01*
X83114011Y-149777100D02*
X83057921Y-149678242D01*
X83186226Y-149870350D02*
X83114011Y-149777100D01*
X83273867Y-149955185D02*
X83186226Y-149870350D01*
X83377633Y-150033010D02*
X83273867Y-149955185D01*
X83497524Y-150102421D02*
X83377633Y-150033010D01*
X82811827Y-151161816D02*
X82806919Y-151061556D01*
X82825850Y-151259973D02*
X82811827Y-151161816D01*
X82848987Y-151356027D02*
X82825850Y-151259973D01*
X82881940Y-151449977D02*
X82848987Y-151356027D01*
X82924708Y-151541824D02*
X82881940Y-151449977D01*
X82975890Y-151631568D02*
X82924708Y-151541824D01*
X83036887Y-151719208D02*
X82975890Y-151631568D01*
X83107701Y-151804745D02*
X83036887Y-151719208D01*
X83187629Y-151883971D02*
X83107701Y-151804745D01*
X83275970Y-151951980D02*
X83187629Y-151883971D01*
X83372725Y-152010173D02*
X83275970Y-151951980D01*
X83479295Y-152057850D02*
X83372725Y-152010173D01*
X83593578Y-152094308D02*
X83479295Y-152057850D01*
X83717677Y-152120951D02*
X83593578Y-152094308D01*
X83850188Y-152136375D02*
X83717677Y-152120951D01*
X83991113Y-152141984D02*
X83850188Y-152136375D01*
X84137648Y-152135674D02*
X83991113Y-152141984D01*
X84275769Y-152118146D02*
X84137648Y-152135674D01*
X84404775Y-152087998D02*
X84275769Y-152118146D01*
X84525368Y-152045931D02*
X84404775Y-152087998D01*
X84637547Y-151991944D02*
X84525368Y-152045931D01*
X84740612Y-151926039D02*
X84637547Y-151991944D01*
X84834563Y-151847513D02*
X84740612Y-151926039D01*
X84920100Y-151757770D02*
X84834563Y-151847513D01*
X84982499Y-151677842D02*
X84920100Y-151757770D01*
X85035785Y-151594408D02*
X84982499Y-151677842D01*
X85081358Y-151508871D02*
X85035785Y-151594408D01*
X85119218Y-151419128D02*
X85081358Y-151508871D01*
X85147964Y-151327281D02*
X85119218Y-151419128D01*
X85168297Y-151231928D02*
X85147964Y-151327281D01*
X85180917Y-151133771D02*
X85168297Y-151231928D01*
X85185124Y-151032810D02*
X85180917Y-151133771D01*
X85182319Y-150960594D02*
X85185124Y-151032810D01*
X85175308Y-150890482D02*
X85182319Y-150960594D01*
X85162688Y-150822473D02*
X85175308Y-150890482D01*
X85144459Y-150755866D02*
X85162688Y-150822473D01*
X85122023Y-150692064D02*
X85144459Y-150755866D01*
X85093978Y-150629665D02*
X85122023Y-150692064D01*
X85061025Y-150569368D02*
X85093978Y-150629665D01*
X85023164Y-150511175D02*
X85061025Y-150569368D01*
X84979695Y-150454384D02*
X85023164Y-150511175D01*
X84930616Y-150399697D02*
X84979695Y-150454384D01*
X84875228Y-150345710D02*
X84930616Y-150399697D01*
X84813529Y-150293827D02*
X84875228Y-150345710D01*
X84746221Y-150244048D02*
X84813529Y-150293827D01*
X84673305Y-150194969D02*
X84746221Y-150244048D01*
X84594078Y-150147994D02*
X84673305Y-150194969D01*
X84508541Y-150102421D02*
X84594078Y-150147994D01*
X83303314Y-149310854D02*
X83300509Y-149365542D01*
X83313129Y-149258270D02*
X83303314Y-149310854D01*
X83328554Y-149207790D02*
X83313129Y-149258270D01*
X83349588Y-149158711D02*
X83328554Y-149207790D01*
X83377633Y-149111736D02*
X83349588Y-149158711D01*
X83411286Y-149066864D02*
X83377633Y-149111736D01*
X83451250Y-149024096D02*
X83411286Y-149066864D01*
X83497524Y-148982729D02*
X83451250Y-149024096D01*
X83548706Y-148944869D02*
X83497524Y-148982729D01*
X83602693Y-148911916D02*
X83548706Y-148944869D01*
X83659484Y-148884572D02*
X83602693Y-148911916D01*
X83720481Y-148861435D02*
X83659484Y-148884572D01*
X83784283Y-148843907D02*
X83720481Y-148861435D01*
X83850889Y-148831287D02*
X83784283Y-148843907D01*
X83921001Y-148824276D02*
X83850889Y-148831287D01*
X83994619Y-148821471D02*
X83921001Y-148824276D01*
X84685925Y-149429344D02*
X84691534Y-149358531D01*
X84669098Y-149500157D02*
X84685925Y-149429344D01*
X84640352Y-149570270D02*
X84669098Y-149500157D01*
X84601089Y-149641083D02*
X84640352Y-149570270D01*
X84551309Y-149707689D02*
X84601089Y-149641083D01*
X84493116Y-149766584D02*
X84551309Y-149707689D01*
X84425809Y-149818467D02*
X84493116Y-149766584D01*
X84349386Y-149862637D02*
X84425809Y-149818467D01*
X84267355Y-149897693D02*
X84349386Y-149862637D01*
X84183221Y-149922934D02*
X84267355Y-149897693D01*
X84096281Y-149938358D02*
X84183221Y-149922934D01*
X84007239Y-149943266D02*
X84096281Y-149938358D01*
X84101890Y-150305746D02*
X84014951Y-150302241D01*
X84185324Y-150316263D02*
X84101890Y-150305746D01*
X84265953Y-150333791D02*
X84185324Y-150316263D01*
X84343076Y-150358330D02*
X84265953Y-150333791D01*
X84417395Y-150389881D02*
X84343076Y-150358330D01*
X84488209Y-150428443D02*
X84417395Y-150389881D01*
X84555516Y-150474016D02*
X84488209Y-150428443D01*
X84620019Y-150526600D02*
X84555516Y-150474016D01*
X84678914Y-150583391D02*
X84620019Y-150526600D01*
X84730096Y-150642285D02*
X84678914Y-150583391D01*
X84772864Y-150703282D02*
X84730096Y-150642285D01*
X84808621Y-150766383D02*
X84772864Y-150703282D01*
X84835965Y-150831588D02*
X84808621Y-150766383D01*
X84855596Y-150898895D02*
X84835965Y-150831588D01*
X84866814Y-150967605D02*
X84855596Y-150898895D01*
X84871021Y-151039120D02*
X84866814Y-150967605D01*
X84867515Y-151112737D02*
X84871021Y-151039120D01*
X84856297Y-151183551D02*
X84867515Y-151112737D01*
X84837367Y-151252261D02*
X84856297Y-151183551D01*
X84811426Y-151318166D02*
X84837367Y-151252261D01*
X84778473Y-151381968D02*
X84811426Y-151318166D01*
X84737107Y-151443667D02*
X84778473Y-151381968D01*
X84688729Y-151503262D02*
X84737107Y-151443667D01*
X84633341Y-151560053D02*
X84688729Y-151503262D01*
X84571642Y-151612637D02*
X84633341Y-151560053D01*
X84504334Y-151657509D02*
X84571642Y-151612637D01*
X84432119Y-151696071D02*
X84504334Y-151657509D01*
X84354995Y-151726920D02*
X84432119Y-151696071D01*
X84272964Y-151751459D02*
X84354995Y-151726920D01*
X84185324Y-151768987D02*
X84272964Y-151751459D01*
X84092776Y-151779504D02*
X84185324Y-151768987D01*
X83994619Y-151783010D02*
X84092776Y-151779504D01*
X83869118Y-151777401D02*
X83994619Y-151783010D01*
X83750629Y-151759873D02*
X83869118Y-151777401D01*
X83640553Y-151731828D02*
X83750629Y-151759873D01*
X83537488Y-151691864D02*
X83640553Y-151731828D01*
X83444239Y-151641383D02*
X83537488Y-151691864D01*
X83362208Y-151580386D02*
X83444239Y-151641383D01*
X83290694Y-151510975D02*
X83362208Y-151580386D01*
X83230397Y-151431047D02*
X83290694Y-151510975D01*
X83182721Y-151345510D02*
X83230397Y-151431047D01*
X83148366Y-151256467D02*
X83182721Y-151345510D01*
X83128033Y-151166023D02*
X83148366Y-151256467D01*
X83121022Y-151072072D02*
X83128033Y-151166023D01*
X96990189Y-149446171D02*
X96986684Y-149516984D01*
X97000706Y-149378162D02*
X96990189Y-149446171D01*
X97018935Y-149312958D02*
X97000706Y-149378162D01*
X97044176Y-149249857D02*
X97018935Y-149312958D01*
X97076427Y-149190262D02*
X97044176Y-149249857D01*
X97115690Y-149132770D02*
X97076427Y-149190262D01*
X97161964Y-149077381D02*
X97115690Y-149132770D01*
X97215950Y-149025498D02*
X97161964Y-149077381D01*
X97274845Y-148977822D02*
X97215950Y-149025498D01*
X97336543Y-148936455D02*
X97274845Y-148977822D01*
X97401748Y-148901399D02*
X97336543Y-148936455D01*
X97469756Y-148872653D02*
X97401748Y-148901399D01*
X97540570Y-148850217D02*
X97469756Y-148872653D01*
X97614188Y-148834092D02*
X97540570Y-148850217D01*
X97690610Y-148824977D02*
X97614188Y-148834092D01*
X97770538Y-148821471D02*
X97690610Y-148824977D01*
X97851167Y-148824977D02*
X97770538Y-148821471D01*
X97928290Y-148834092D02*
X97851167Y-148824977D01*
X98002609Y-148850217D02*
X97928290Y-148834092D01*
X98073422Y-148872653D02*
X98002609Y-148850217D01*
X98141431Y-148901399D02*
X98073422Y-148872653D01*
X98206635Y-148936455D02*
X98141431Y-148901399D01*
X98268334Y-148977822D02*
X98206635Y-148936455D01*
X98327228Y-149025498D02*
X98268334Y-148977822D01*
X98381215Y-149077381D02*
X98327228Y-149025498D01*
X98428190Y-149132770D02*
X98381215Y-149077381D01*
X98467453Y-149190262D02*
X98428190Y-149132770D01*
X98499704Y-149249857D02*
X98467453Y-149190262D01*
X98524945Y-149312958D02*
X98499704Y-149249857D01*
X98543174Y-149378162D02*
X98524945Y-149312958D01*
X98553691Y-149446171D02*
X98543174Y-149378162D01*
X98557196Y-149516984D02*
X98553691Y-149446171D01*
X98553691Y-149587798D02*
X98557196Y-149516984D01*
X98544576Y-149655806D02*
X98553691Y-149587798D01*
X98528450Y-149721011D02*
X98544576Y-149655806D01*
X98505313Y-149784112D02*
X98528450Y-149721011D01*
X98476567Y-149844408D02*
X98505313Y-149784112D01*
X98440810Y-149901900D02*
X98476567Y-149844408D01*
X98398743Y-149956588D02*
X98440810Y-149901900D01*
X98350365Y-150009172D02*
X98398743Y-149956588D01*
X98296379Y-150056848D02*
X98350365Y-150009172D01*
X98238887Y-150098214D02*
X98296379Y-150056848D01*
X98176487Y-150133270D02*
X98238887Y-150098214D01*
X98109881Y-150161315D02*
X98176487Y-150133270D01*
X98039768Y-150183751D02*
X98109881Y-150161315D01*
X97964748Y-150199877D02*
X98039768Y-150183751D01*
X97886223Y-150208991D02*
X97964748Y-150199877D01*
X97802789Y-150212497D02*
X97886223Y-150208991D01*
X97926187Y-150564460D02*
X97744596Y-150571471D01*
X98112685Y-150544829D02*
X97926187Y-150564460D01*
X98522841Y-150483831D02*
X98468154Y-150565862D01*
X98573322Y-150404604D02*
X98522841Y-150483831D01*
X98618895Y-150328883D02*
X98573322Y-150404604D01*
X98660261Y-150255266D02*
X98618895Y-150328883D01*
X98697421Y-150185854D02*
X98660261Y-150255266D01*
X98730373Y-150118547D02*
X98697421Y-150185854D01*
X98759119Y-150054745D02*
X98730373Y-150118547D01*
X98782958Y-149993747D02*
X98759119Y-150054745D01*
X98821519Y-149875959D02*
X98782958Y-149993747D01*
X98849564Y-149760274D02*
X98821519Y-149875959D01*
X98865690Y-149648094D02*
X98849564Y-149760274D01*
X98871299Y-149538018D02*
X98865690Y-149648094D01*
X98862184Y-149396391D02*
X98871299Y-149538018D01*
X98835542Y-149259673D02*
X98862184Y-149396391D01*
X98790670Y-149126459D02*
X98835542Y-149259673D01*
X98728270Y-148998154D02*
X98790670Y-149126459D01*
X98649744Y-148878262D02*
X98728270Y-148998154D01*
X98557897Y-148772393D02*
X98649744Y-148878262D01*
X98452729Y-148681247D02*
X98557897Y-148772393D01*
X98333539Y-148603423D02*
X98452729Y-148681247D01*
X98205233Y-148541724D02*
X98333539Y-148603423D01*
X98071319Y-148497553D02*
X98205233Y-148541724D01*
X97931796Y-148471612D02*
X98071319Y-148497553D01*
X97786664Y-148462497D02*
X97931796Y-148471612D01*
X97638727Y-148471612D02*
X97786664Y-148462497D01*
X97494997Y-148498254D02*
X97638727Y-148471612D01*
X97356175Y-148543827D02*
X97494997Y-148498254D01*
X97222260Y-148606928D02*
X97356175Y-148543827D01*
X97098162Y-148685454D02*
X97222260Y-148606928D01*
X96988787Y-148775899D02*
X97098162Y-148685454D01*
X96894837Y-148878262D02*
X96988787Y-148775899D01*
X96815610Y-148993246D02*
X96894837Y-148878262D01*
X96753210Y-149117345D02*
X96815610Y-148993246D01*
X96708338Y-149249156D02*
X96753210Y-149117345D01*
X96681696Y-149387978D02*
X96708338Y-149249156D01*
X96672581Y-149534512D02*
X96681696Y-149387978D01*
X96677489Y-149641784D02*
X96672581Y-149534512D01*
X96692212Y-149744849D02*
X96677489Y-149641784D01*
X96716752Y-149843707D02*
X96692212Y-149744849D01*
X96750405Y-149937657D02*
X96716752Y-149843707D01*
X96794576Y-150028102D02*
X96750405Y-149937657D01*
X96847861Y-150113639D02*
X96794576Y-150028102D01*
X96911664Y-150194969D02*
X96847861Y-150113639D01*
X96984580Y-150272092D02*
X96911664Y-150194969D01*
X97064508Y-150342205D02*
X96984580Y-150272092D01*
X97149344Y-150403202D02*
X97064508Y-150342205D01*
X97237685Y-150454384D02*
X97149344Y-150403202D01*
X97330934Y-150496451D02*
X97237685Y-150454384D01*
X97427689Y-150529404D02*
X97330934Y-150496451D01*
X97529352Y-150552541D02*
X97427689Y-150529404D01*
X97634520Y-150566564D02*
X97529352Y-150552541D01*
X97744596Y-150571471D02*
X97634520Y-150566564D01*
X97720057Y-150208991D02*
X97802789Y-150212497D01*
X97640129Y-150199877D02*
X97720057Y-150208991D01*
X97563006Y-150183751D02*
X97640129Y-150199877D01*
X97489388Y-150161315D02*
X97563006Y-150183751D01*
X97419276Y-150133270D02*
X97489388Y-150161315D01*
X97351267Y-150098214D02*
X97419276Y-150133270D01*
X97286764Y-150056848D02*
X97351267Y-150098214D01*
X97225766Y-150009172D02*
X97286764Y-150056848D01*
X97169676Y-149956588D02*
X97225766Y-150009172D01*
X97121299Y-149901900D02*
X97169676Y-149956588D01*
X97079933Y-149844408D02*
X97121299Y-149901900D01*
X97046279Y-149784112D02*
X97079933Y-149844408D01*
X97020337Y-149721011D02*
X97046279Y-149784112D01*
X97001407Y-149655806D02*
X97020337Y-149721011D01*
X96990189Y-149587798D02*
X97001407Y-149655806D01*
X96986684Y-149516984D02*
X96990189Y-149587798D01*
X84937892Y-163453311D02*
X84939996Y-163327109D01*
X84931582Y-163575306D02*
X84937892Y-163453311D01*
X84921066Y-163692393D02*
X84931582Y-163575306D01*
X84907043Y-163804573D02*
X84921066Y-163692393D01*
X84888113Y-163911844D02*
X84907043Y-163804573D01*
X84865677Y-164014909D02*
X84888113Y-163911844D01*
X84838333Y-164113066D02*
X84865677Y-164014909D01*
X84807484Y-164207017D02*
X84838333Y-164113066D01*
X83191399Y-163186183D02*
X83189997Y-163327109D01*
X83197008Y-163053671D02*
X83191399Y-163186183D01*
X83205422Y-162930975D02*
X83197008Y-163053671D01*
X83217341Y-162816692D02*
X83205422Y-162930975D01*
X83232064Y-162710823D02*
X83217341Y-162816692D01*
X83250994Y-162614769D02*
X83232064Y-162710823D01*
X83272729Y-162527129D02*
X83250994Y-162614769D01*
X83297970Y-162448603D02*
X83272729Y-162527129D01*
X83326716Y-162376388D02*
X83297970Y-162448603D01*
X83358266Y-162309080D02*
X83326716Y-162376388D01*
X83393322Y-162245979D02*
X83358266Y-162309080D01*
X83431183Y-162187786D02*
X83393322Y-162245979D01*
X83471848Y-162133800D02*
X83431183Y-162187786D01*
X83516018Y-162084020D02*
X83471848Y-162133800D01*
X83562994Y-162039148D02*
X83516018Y-162084020D01*
X83613474Y-161999184D02*
X83562994Y-162039148D01*
X83719344Y-161932578D02*
X83613474Y-161999184D01*
X83828018Y-161884200D02*
X83719344Y-161932578D01*
X83940897Y-161856155D02*
X83828018Y-161884200D01*
X84056582Y-161846340D02*
X83940897Y-161856155D01*
X82877998Y-163495378D02*
X82875894Y-163328511D01*
X82885009Y-163653130D02*
X82877998Y-163495378D01*
X82896928Y-163801768D02*
X82885009Y-163653130D01*
X82913755Y-163939889D02*
X82896928Y-163801768D01*
X82934788Y-164068896D02*
X82913755Y-163939889D01*
X82960029Y-164188788D02*
X82934788Y-164068896D01*
X82990878Y-164298864D02*
X82960029Y-164188788D01*
X83025934Y-164399124D02*
X82990878Y-164298864D01*
X83065197Y-164491672D02*
X83025934Y-164399124D01*
X83108667Y-164578611D02*
X83065197Y-164491672D01*
X83155642Y-164659240D02*
X83108667Y-164578611D01*
X83206123Y-164733559D02*
X83155642Y-164659240D01*
X83260109Y-164802970D02*
X83206123Y-164733559D01*
X83317601Y-164866071D02*
X83260109Y-164802970D01*
X83379300Y-164922862D02*
X83317601Y-164866071D01*
X83444504Y-164974044D02*
X83379300Y-164922862D01*
X83512513Y-165018916D02*
X83444504Y-164974044D01*
X83582625Y-165058179D02*
X83512513Y-165018916D01*
X83654841Y-165091832D02*
X83582625Y-165058179D01*
X83729159Y-165118475D02*
X83654841Y-165091832D01*
X83804881Y-165139509D02*
X83729159Y-165118475D01*
X83883405Y-165154933D02*
X83804881Y-165139509D01*
X83963333Y-165164048D02*
X83883405Y-165154933D01*
X84046066Y-165166852D02*
X83963333Y-165164048D01*
X84129499Y-165164048D02*
X84046066Y-165166852D01*
X84211530Y-165154232D02*
X84129499Y-165164048D01*
X84291458Y-165138808D02*
X84211530Y-165154232D01*
X84369283Y-165117073D02*
X84291458Y-165138808D01*
X84445004Y-165089028D02*
X84369283Y-165117073D01*
X84519323Y-165055374D02*
X84445004Y-165089028D01*
X84591538Y-165014709D02*
X84519323Y-165055374D01*
X84661650Y-164968435D02*
X84591538Y-165014709D01*
X84728958Y-164915851D02*
X84661650Y-164968435D01*
X84792760Y-164856957D02*
X84728958Y-164915851D01*
X84853057Y-164792453D02*
X84792760Y-164856957D01*
X84909146Y-164721640D02*
X84853057Y-164792453D01*
X84961731Y-164644517D02*
X84909146Y-164721640D01*
X85010108Y-164561784D02*
X84961731Y-164644517D01*
X85054980Y-164473443D02*
X85010108Y-164561784D01*
X85096346Y-164378792D02*
X85054980Y-164473443D01*
X85133505Y-164277129D02*
X85096346Y-164378792D01*
X85165056Y-164166352D02*
X85133505Y-164277129D01*
X85192400Y-164047862D02*
X85165056Y-164166352D01*
X85214836Y-163920959D02*
X85192400Y-164047862D01*
X85231662Y-163785642D02*
X85214836Y-163920959D01*
X85244283Y-163641211D02*
X85231662Y-163785642D01*
X85251294Y-163489068D02*
X85244283Y-163641211D01*
X85254098Y-163328511D02*
X85251294Y-163489068D01*
X85251294Y-163167253D02*
X85254098Y-163328511D01*
X85244283Y-163014409D02*
X85251294Y-163167253D01*
X85231662Y-162869276D02*
X85244283Y-163014409D01*
X85214134Y-162733259D02*
X85231662Y-162869276D01*
X85191699Y-162605655D02*
X85214134Y-162733259D01*
X85164355Y-162486464D02*
X85191699Y-162605655D01*
X85131402Y-162375687D02*
X85164355Y-162486464D01*
X85094243Y-162273323D02*
X85131402Y-162375687D01*
X85052175Y-162177970D02*
X85094243Y-162273323D01*
X85007304Y-162088928D02*
X85052175Y-162177970D01*
X84958225Y-162006195D02*
X85007304Y-162088928D01*
X84905641Y-161929072D02*
X84958225Y-162006195D01*
X84849551Y-161858960D02*
X84905641Y-161929072D01*
X84789956Y-161794457D02*
X84849551Y-161858960D01*
X84726154Y-161735562D02*
X84789956Y-161794457D01*
X84659547Y-161683679D02*
X84726154Y-161735562D01*
X84590136Y-161637405D02*
X84659547Y-161683679D01*
X84517921Y-161597441D02*
X84590136Y-161637405D01*
X84444303Y-161563788D02*
X84517921Y-161597441D01*
X84368582Y-161536444D02*
X84444303Y-161563788D01*
X84290757Y-161514709D02*
X84368582Y-161536444D01*
X84211530Y-161499284D02*
X84290757Y-161514709D01*
X84129499Y-161490170D02*
X84211530Y-161499284D01*
X84046066Y-161487365D02*
X84129499Y-161490170D01*
X83963333Y-161490170D02*
X84046066Y-161487365D01*
X83883405Y-161499284D02*
X83963333Y-161490170D01*
X83804881Y-161514709D02*
X83883405Y-161499284D01*
X83728458Y-161536444D02*
X83804881Y-161514709D01*
X83653438Y-161563788D02*
X83728458Y-161536444D01*
X83581223Y-161597441D02*
X83653438Y-161563788D01*
X83510409Y-161637405D02*
X83581223Y-161597441D01*
X83441700Y-161682978D02*
X83510409Y-161637405D01*
X83375794Y-161734861D02*
X83441700Y-161682978D01*
X83314095Y-161791652D02*
X83375794Y-161734861D01*
X83256603Y-161854753D02*
X83314095Y-161791652D01*
X83202617Y-161923463D02*
X83256603Y-161854753D01*
X83152136Y-161998483D02*
X83202617Y-161923463D01*
X83105161Y-162078411D02*
X83152136Y-161998483D01*
X83062393Y-162164649D02*
X83105161Y-162078411D01*
X83023831Y-162256496D02*
X83062393Y-162164649D01*
X82989476Y-162356055D02*
X83023831Y-162256496D01*
X82959328Y-162465430D02*
X82989476Y-162356055D01*
X82933386Y-162584621D02*
X82959328Y-162465430D01*
X82913054Y-162713627D02*
X82933386Y-162584621D01*
X82896928Y-162852449D02*
X82913054Y-162713627D01*
X82885009Y-163001788D02*
X82896928Y-162852449D01*
X82877998Y-163160242D02*
X82885009Y-163001788D01*
X82875894Y-163328511D02*
X82877998Y-163160242D01*
X83941598Y-164798062D02*
X84056582Y-164807878D01*
X83829420Y-164769316D02*
X83941598Y-164798062D01*
X83720045Y-164721640D02*
X83829420Y-164769316D01*
X83613474Y-164654332D02*
X83720045Y-164721640D01*
X83562994Y-164613667D02*
X83613474Y-164654332D01*
X83515317Y-164568796D02*
X83562994Y-164613667D01*
X83471147Y-164519016D02*
X83515317Y-164568796D01*
X83429780Y-164465030D02*
X83471147Y-164519016D01*
X83391920Y-164406836D02*
X83429780Y-164465030D01*
X83357565Y-164343735D02*
X83391920Y-164406836D01*
X83326014Y-164276428D02*
X83357565Y-164343735D01*
X83297268Y-164204212D02*
X83326014Y-164276428D01*
X83272028Y-164125687D02*
X83297268Y-164204212D01*
X83250293Y-164038046D02*
X83272028Y-164125687D01*
X83232064Y-163941292D02*
X83250293Y-164038046D01*
X83216639Y-163836123D02*
X83232064Y-163941292D01*
X83205422Y-163722542D02*
X83216639Y-163836123D01*
X83197008Y-163599144D02*
X83205422Y-163722542D01*
X83191399Y-163467333D02*
X83197008Y-163599144D01*
X83189997Y-163327109D02*
X83191399Y-163467333D01*
X84170865Y-161856155D02*
X84056582Y-161846340D01*
X84282344Y-161884200D02*
X84170865Y-161856155D01*
X84390316Y-161932578D02*
X84282344Y-161884200D01*
X84496186Y-161999184D02*
X84390316Y-161932578D01*
X84546666Y-162039849D02*
X84496186Y-161999184D01*
X84594343Y-162086123D02*
X84546666Y-162039849D01*
X84639916Y-162138006D02*
X84594343Y-162086123D01*
X84681983Y-162195498D02*
X84639916Y-162138006D01*
X84721246Y-162258599D02*
X84681983Y-162195498D01*
X84757704Y-162327309D02*
X84721246Y-162258599D01*
X84791358Y-162400927D02*
X84757704Y-162327309D01*
X84822207Y-162480855D02*
X84791358Y-162400927D01*
X84849551Y-162566392D02*
X84822207Y-162480855D01*
X84874090Y-162657538D02*
X84849551Y-162566392D01*
X84893722Y-162754292D02*
X84874090Y-162657538D01*
X84910549Y-162857357D02*
X84893722Y-162754292D01*
X84923169Y-162966031D02*
X84910549Y-162857357D01*
X84932985Y-163080314D02*
X84923169Y-162966031D01*
X84937892Y-163200907D02*
X84932985Y-163080314D01*
X84939996Y-163327109D02*
X84937892Y-163200907D01*
X84779439Y-164279933D02*
X84807484Y-164207017D01*
X84748590Y-164347942D02*
X84779439Y-164279933D01*
X84714235Y-164411744D02*
X84748590Y-164347942D01*
X84677075Y-164469937D02*
X84714235Y-164411744D01*
X84636410Y-164523924D02*
X84677075Y-164469937D01*
X84592941Y-164573703D02*
X84636410Y-164523924D01*
X84546666Y-164617874D02*
X84592941Y-164573703D01*
X84496887Y-164657838D02*
X84546666Y-164617874D01*
X84392420Y-164723743D02*
X84496887Y-164657838D01*
X84284447Y-164770017D02*
X84392420Y-164723743D01*
X84172267Y-164798763D02*
X84284447Y-164770017D01*
X84056582Y-164807878D02*
X84172267Y-164798763D01*
X84284799Y-178285600D02*
G75*
G03*
X84284799Y-178285600I-449999J0D01*
G01*
X81744801Y-178285600D02*
G75*
G03*
X81744801Y-178285600I-450001J0D01*
G01*
X86824799Y-178285600D02*
G75*
G03*
X86824799Y-178285600I-449999J0D01*
G01*
X89364799Y-178285600D02*
G75*
G03*
X89364799Y-178285600I-449999J0D01*
G01*
X91904799Y-178285600D02*
G75*
G03*
X91904799Y-178285600I-449999J0D01*
G01*
X79204801Y-178285600D02*
G75*
G03*
X79204801Y-178285600I-450001J0D01*
G01*
X76664800Y-178285600D02*
G75*
G03*
X76664800Y-178285600I-450000J0D01*
G01*
X75414800Y-177285600D02*
G75*
G02*
X75914800Y-176785600I500000J0D01*
G01*
X75914800Y-179785599D02*
G75*
G02*
X75414801Y-179285600I0J499999D01*
G01*
X76514800Y-176785600D02*
G75*
G02*
X77014800Y-177285600I0J-500000D01*
G01*
X77014800Y-179285600D02*
G75*
G02*
X76514800Y-179785600I-500000J0D01*
G01*
X77954799Y-177285600D02*
G75*
G02*
X78454800Y-176785599I500001J0D01*
G01*
X79054800Y-176785599D02*
G75*
G02*
X79554801Y-177285600I0J-500001D01*
G01*
X79554800Y-179285600D02*
G75*
G02*
X79054800Y-179785600I-500000J0D01*
G01*
X78454800Y-179785599D02*
G75*
G02*
X77954801Y-179285600I0J499999D01*
G01*
X91754800Y-176785600D02*
G75*
G02*
X92254800Y-177285600I0J-500000D01*
G01*
X92254800Y-179285600D02*
G75*
G02*
X91754800Y-179785600I-500000J0D01*
G01*
X91154800Y-179785601D02*
G75*
G02*
X90654799Y-179285600I0J500001D01*
G01*
X90654799Y-177285600D02*
G75*
G02*
X91154800Y-176785599I500001J0D01*
G01*
X88114799Y-177285600D02*
G75*
G02*
X88614800Y-176785599I500001J0D01*
G01*
X89214800Y-176785600D02*
G75*
G02*
X89714800Y-177285600I0J-500000D01*
G01*
X89714800Y-179285600D02*
G75*
G02*
X89214800Y-179785600I-500000J0D01*
G01*
X88614800Y-179785601D02*
G75*
G02*
X88114799Y-179285600I0J500001D01*
G01*
X87174800Y-179285600D02*
G75*
G02*
X86674800Y-179785600I-500000J0D01*
G01*
X86074800Y-179785601D02*
G75*
G02*
X85574799Y-179285600I0J500001D01*
G01*
X86674800Y-176785600D02*
G75*
G02*
X87174800Y-177285600I0J-500000D01*
G01*
X85574799Y-177285600D02*
G75*
G02*
X86074800Y-176785599I500001J0D01*
G01*
X80494799Y-177285600D02*
G75*
G02*
X80994800Y-176785599I500001J0D01*
G01*
X81594800Y-176785599D02*
G75*
G02*
X82094801Y-177285600I0J-500001D01*
G01*
X82094800Y-179285600D02*
G75*
G02*
X81594800Y-179785600I-500000J0D01*
G01*
X80994800Y-179785600D02*
G75*
G02*
X80494800Y-179285600I0J500000D01*
G01*
X83034799Y-177285599D02*
G75*
G02*
X83534801Y-176785599I500001J-1D01*
G01*
X84134800Y-176785600D02*
G75*
G02*
X84634800Y-177285600I0J-500000D01*
G01*
X84634800Y-179285601D02*
G75*
G02*
X84134799Y-179785600I-500000J1D01*
G01*
X83534800Y-179785600D02*
G75*
G02*
X83034800Y-179285600I0J500000D01*
G01*
X102184800Y-180285600D02*
G75*
G02*
X101184800Y-181285600I-1000000J0D01*
G01*
X66484800Y-181285600D02*
G75*
G02*
X65484800Y-180285600I0J1000000D01*
G01*
X80134800Y-166985600D02*
G75*
G02*
X79634800Y-166485600I0J500000D01*
G01*
X79634800Y-160085600D02*
G75*
G02*
X80134800Y-159585600I500000J0D01*
G01*
X87534800Y-159585600D02*
G75*
G02*
X88034800Y-160085600I0J-500000D01*
G01*
X88034800Y-166485600D02*
G75*
G02*
X87534800Y-166985600I-500000J0D01*
G01*
X102034800Y-166485600D02*
G75*
G02*
X101534800Y-166985600I-500000J0D01*
G01*
X94134800Y-166985601D02*
G75*
G02*
X93634799Y-166485600I0J500001D01*
G01*
X93634799Y-160085600D02*
G75*
G02*
X94134800Y-159585599I500001J0D01*
G01*
X101534800Y-159585600D02*
G75*
G02*
X102034800Y-160085600I0J-500000D01*
G01*
X101534800Y-146585600D02*
G75*
G02*
X102034800Y-147085600I0J-500000D01*
G01*
X102034800Y-153485600D02*
G75*
G02*
X101534800Y-153985600I-500000J0D01*
G01*
X94134800Y-153985601D02*
G75*
G02*
X93634799Y-153485600I0J500001D01*
G01*
X93634799Y-147085600D02*
G75*
G02*
X94134800Y-146585599I500001J0D01*
G01*
X87534800Y-146585600D02*
G75*
G02*
X88034800Y-147085600I0J-500000D01*
G01*
X88034800Y-153485600D02*
G75*
G02*
X87534800Y-153985600I-500000J0D01*
G01*
X79634800Y-147085600D02*
G75*
G02*
X80134800Y-146585600I500000J0D01*
G01*
X80134800Y-153985600D02*
G75*
G02*
X79634800Y-153485600I0J500000D01*
G01*
X73534800Y-146585600D02*
G75*
G02*
X74034800Y-147085600I0J-500000D01*
G01*
X74034800Y-153485600D02*
G75*
G02*
X73534800Y-153985600I-500000J0D01*
G01*
X66134800Y-153985600D02*
G75*
G02*
X65634800Y-153485600I0J500000D01*
G01*
X65634799Y-147085600D02*
G75*
G02*
X66134800Y-146585599I500001J0D01*
G01*
X102034801Y-140485600D02*
G75*
G02*
X101534800Y-140985601I-500001J0D01*
G01*
X94134800Y-140985600D02*
G75*
G02*
X93634800Y-140485600I0J500000D01*
G01*
X93634800Y-134085600D02*
G75*
G02*
X94134800Y-133585600I500000J0D01*
G01*
X101534800Y-133585600D02*
G75*
G02*
X102034800Y-134085600I0J-500000D01*
G01*
X79634800Y-134085600D02*
G75*
G02*
X80134800Y-133585600I500000J0D01*
G01*
X87534800Y-133585600D02*
G75*
G02*
X88034800Y-134085600I0J-500000D01*
G01*
X88034801Y-140485600D02*
G75*
G02*
X87534800Y-140985601I-500001J0D01*
G01*
X80134800Y-140985600D02*
G75*
G02*
X79634800Y-140485600I0J500000D01*
G01*
X65634800Y-134085600D02*
G75*
G02*
X66134800Y-133585600I500000J0D01*
G01*
X73534800Y-133585599D02*
G75*
G02*
X74034801Y-134085600I0J-500001D01*
G01*
X74034801Y-140485600D02*
G75*
G02*
X73534800Y-140985601I-500001J0D01*
G01*
X66134800Y-140985600D02*
G75*
G02*
X65634800Y-140485600I0J500000D01*
G01*
X65634800Y-121085600D02*
G75*
G02*
X66134800Y-120585600I500000J0D01*
G01*
X73534800Y-120585600D02*
G75*
G02*
X74034800Y-121085600I0J-500000D01*
G01*
X74034800Y-127485600D02*
G75*
G02*
X73534800Y-127985600I-500000J0D01*
G01*
X66134800Y-127985600D02*
G75*
G02*
X65634800Y-127485600I0J500000D01*
G01*
X87534800Y-120585600D02*
G75*
G02*
X88034800Y-121085600I0J-500000D01*
G01*
X88034800Y-127485600D02*
G75*
G02*
X87534800Y-127985600I-500000J0D01*
G01*
X80134800Y-127985600D02*
G75*
G02*
X79634800Y-127485600I0J500000D01*
G01*
X79634800Y-121085600D02*
G75*
G02*
X80134800Y-120585600I500000J0D01*
G01*
X93634800Y-121085600D02*
G75*
G02*
X94134800Y-120585600I500000J0D01*
G01*
X101534800Y-120585600D02*
G75*
G02*
X102034800Y-121085600I0J-500000D01*
G01*
X102034800Y-127485600D02*
G75*
G02*
X101534800Y-127985600I-500000J0D01*
G01*
X94134800Y-127985601D02*
G75*
G02*
X93634799Y-127485600I0J500001D01*
G01*
X65634800Y-160085600D02*
G75*
G02*
X66134800Y-159585600I500000J0D01*
G01*
X74034800Y-166485600D02*
G75*
G02*
X73534800Y-166985600I-500000J0D01*
G01*
X66134800Y-166985599D02*
G75*
G02*
X65634801Y-166485600I0J499999D01*
G01*
X73534800Y-159585599D02*
G75*
G02*
X74034801Y-160085600I0J-500001D01*
G01*
X102834800Y-115285601D02*
G75*
G02*
X106834799Y-119285600I0J-3999999D01*
G01*
X64834800Y-172285599D02*
G75*
G02*
X60834801Y-168285600I0J3999999D01*
G01*
X106834799Y-168285600D02*
G75*
G02*
X102834800Y-172285599I-3999999J0D01*
G01*
X60834800Y-119285600D02*
G75*
G02*
X64834800Y-115285600I4000000J0D01*
G01*
X105334800Y-111785600D02*
G75*
G02*
X109334800Y-115785600I0J-4000000D01*
G01*
X109334800Y-171785600D02*
G75*
G02*
X105334800Y-175785600I-4000000J0D01*
G01*
X62334800Y-175785600D02*
G75*
G02*
X58334800Y-171785600I0J4000000D01*
G01*
X58334800Y-115785600D02*
G75*
G02*
X62334800Y-111785600I4000000J0D01*
G01*
%TO.C,U102*%
D12*
X105278940Y-100009745D02*
X106088464Y-100009745D01*
X106183702Y-99962126D01*
X106231321Y-99914507D01*
X106278940Y-99819269D01*
X106278940Y-99628793D01*
X106231321Y-99533555D01*
X106183702Y-99485936D01*
X106088464Y-99438317D01*
X105278940Y-99438317D01*
X106278940Y-98438317D02*
X106278940Y-99009745D01*
X106278940Y-98724031D02*
X105278940Y-98724031D01*
X105421798Y-98819269D01*
X105517036Y-98914507D01*
X105564655Y-99009745D01*
X105278940Y-97819269D02*
X105278940Y-97724031D01*
X105326560Y-97628793D01*
X105374179Y-97581174D01*
X105469417Y-97533555D01*
X105659893Y-97485936D01*
X105897988Y-97485936D01*
X106088464Y-97533555D01*
X106183702Y-97581174D01*
X106231321Y-97628793D01*
X106278940Y-97724031D01*
X106278940Y-97819269D01*
X106231321Y-97914507D01*
X106183702Y-97962126D01*
X106088464Y-98009745D01*
X105897988Y-98057364D01*
X105659893Y-98057364D01*
X105469417Y-98009745D01*
X105374179Y-97962126D01*
X105326560Y-97914507D01*
X105278940Y-97819269D01*
X105374179Y-97104983D02*
X105326560Y-97057364D01*
X105278940Y-96962126D01*
X105278940Y-96724031D01*
X105326560Y-96628793D01*
X105374179Y-96581174D01*
X105469417Y-96533555D01*
X105564655Y-96533555D01*
X105707512Y-96581174D01*
X106278940Y-97152602D01*
X106278940Y-96533555D01*
D13*
X74893715Y-104792916D02*
X74530858Y-105021516D01*
X74893715Y-105184801D02*
X74131715Y-105184801D01*
X74131715Y-104923544D01*
X74168001Y-104858230D01*
X74204286Y-104825573D01*
X74276858Y-104792916D01*
X74385715Y-104792916D01*
X74458286Y-104825573D01*
X74494572Y-104858230D01*
X74530858Y-104923544D01*
X74530858Y-105184801D01*
X74494572Y-104499001D02*
X74494572Y-104270401D01*
X74893715Y-104172430D02*
X74893715Y-104499001D01*
X74131715Y-104499001D01*
X74131715Y-104172430D01*
X74857429Y-103911173D02*
X74893715Y-103813201D01*
X74893715Y-103649916D01*
X74857429Y-103584601D01*
X74821143Y-103551944D01*
X74748572Y-103519287D01*
X74676001Y-103519287D01*
X74603429Y-103551944D01*
X74567143Y-103584601D01*
X74530858Y-103649916D01*
X74494572Y-103780544D01*
X74458286Y-103845858D01*
X74422001Y-103878516D01*
X74349429Y-103911173D01*
X74276858Y-103911173D01*
X74204286Y-103878516D01*
X74168001Y-103845858D01*
X74131715Y-103780544D01*
X74131715Y-103617258D01*
X74168001Y-103519287D01*
X74494572Y-103225373D02*
X74494572Y-102996773D01*
X74893715Y-102898801D02*
X74893715Y-103225373D01*
X74131715Y-103225373D01*
X74131715Y-102898801D01*
X74131715Y-102702858D02*
X74131715Y-102310973D01*
X74893715Y-102506916D02*
X74131715Y-102506916D01*
X79973715Y-105184801D02*
X79211715Y-105184801D01*
X79756001Y-104956201D01*
X79211715Y-104727601D01*
X79973715Y-104727601D01*
X79211715Y-104270401D02*
X79211715Y-104139773D01*
X79248001Y-104074458D01*
X79320572Y-104009144D01*
X79465715Y-103976487D01*
X79719715Y-103976487D01*
X79864858Y-104009144D01*
X79937429Y-104074458D01*
X79973715Y-104139773D01*
X79973715Y-104270401D01*
X79937429Y-104335716D01*
X79864858Y-104401030D01*
X79719715Y-104433687D01*
X79465715Y-104433687D01*
X79320572Y-104401030D01*
X79248001Y-104335716D01*
X79211715Y-104270401D01*
X79937429Y-103715230D02*
X79973715Y-103617258D01*
X79973715Y-103453973D01*
X79937429Y-103388658D01*
X79901143Y-103356001D01*
X79828572Y-103323344D01*
X79756001Y-103323344D01*
X79683429Y-103356001D01*
X79647143Y-103388658D01*
X79610858Y-103453973D01*
X79574572Y-103584601D01*
X79538286Y-103649916D01*
X79502001Y-103682573D01*
X79429429Y-103715230D01*
X79356858Y-103715230D01*
X79284286Y-103682573D01*
X79248001Y-103649916D01*
X79211715Y-103584601D01*
X79211715Y-103421316D01*
X79248001Y-103323344D01*
X79973715Y-103029430D02*
X79211715Y-103029430D01*
X96991715Y-105282773D02*
X96991715Y-104890887D01*
X97753715Y-105086830D02*
X96991715Y-105086830D01*
X97826286Y-104825573D02*
X97826286Y-104303058D01*
X97753715Y-104139773D02*
X96991715Y-104139773D01*
X96991715Y-103976487D01*
X97028001Y-103878516D01*
X97100572Y-103813201D01*
X97173143Y-103780544D01*
X97318286Y-103747887D01*
X97427143Y-103747887D01*
X97572286Y-103780544D01*
X97644858Y-103813201D01*
X97717429Y-103878516D01*
X97753715Y-103976487D01*
X97753715Y-104139773D01*
X96991715Y-103323344D02*
X96991715Y-103192716D01*
X97028001Y-103127401D01*
X97100572Y-103062087D01*
X97245715Y-103029430D01*
X97499715Y-103029430D01*
X97644858Y-103062087D01*
X97717429Y-103127401D01*
X97753715Y-103192716D01*
X97753715Y-103323344D01*
X97717429Y-103388658D01*
X97644858Y-103453973D01*
X97499715Y-103486630D01*
X97245715Y-103486630D01*
X97100572Y-103453973D01*
X97028001Y-103388658D01*
X96991715Y-103323344D01*
X89371715Y-105282773D02*
X89371715Y-104890887D01*
X90133715Y-105086830D02*
X89371715Y-105086830D01*
X90206286Y-104825573D02*
X90206286Y-104303058D01*
X90061143Y-103747887D02*
X90097429Y-103780544D01*
X90133715Y-103878516D01*
X90133715Y-103943830D01*
X90097429Y-104041801D01*
X90024858Y-104107116D01*
X89952286Y-104139773D01*
X89807143Y-104172430D01*
X89698286Y-104172430D01*
X89553143Y-104139773D01*
X89480572Y-104107116D01*
X89408001Y-104041801D01*
X89371715Y-103943830D01*
X89371715Y-103878516D01*
X89408001Y-103780544D01*
X89444286Y-103747887D01*
X90133715Y-103127401D02*
X90133715Y-103453973D01*
X89371715Y-103453973D01*
X90133715Y-102898801D02*
X89371715Y-102898801D01*
X90133715Y-102506916D02*
X89698286Y-102800830D01*
X89371715Y-102506916D02*
X89807143Y-102898801D01*
X87593714Y-105184801D02*
X86831714Y-105184801D01*
X87376000Y-104956201D01*
X86831714Y-104727601D01*
X87593714Y-104727601D01*
X87593714Y-104401030D02*
X86831714Y-104401030D01*
X87557428Y-104107116D02*
X87593714Y-104009144D01*
X87593714Y-103845858D01*
X87557428Y-103780544D01*
X87521142Y-103747887D01*
X87448571Y-103715230D01*
X87376000Y-103715230D01*
X87303428Y-103747887D01*
X87267142Y-103780544D01*
X87230857Y-103845858D01*
X87194571Y-103976487D01*
X87158285Y-104041801D01*
X87122000Y-104074458D01*
X87049428Y-104107116D01*
X86976857Y-104107116D01*
X86904285Y-104074458D01*
X86868000Y-104041801D01*
X86831714Y-103976487D01*
X86831714Y-103813201D01*
X86868000Y-103715230D01*
X86831714Y-103290687D02*
X86831714Y-103160058D01*
X86868000Y-103094744D01*
X86940571Y-103029430D01*
X87085714Y-102996773D01*
X87339714Y-102996773D01*
X87484857Y-103029430D01*
X87557428Y-103094744D01*
X87593714Y-103160058D01*
X87593714Y-103290687D01*
X87557428Y-103356001D01*
X87484857Y-103421316D01*
X87339714Y-103453973D01*
X87085714Y-103453973D01*
X86940571Y-103421316D01*
X86868000Y-103356001D01*
X86831714Y-103290687D01*
X94451714Y-105282773D02*
X94451714Y-104890887D01*
X95213714Y-105086830D02*
X94451714Y-105086830D01*
X95286285Y-104825573D02*
X95286285Y-104303058D01*
X95213714Y-104139773D02*
X94451714Y-104139773D01*
X94451714Y-103976487D01*
X94488000Y-103878516D01*
X94560571Y-103813201D01*
X94633142Y-103780544D01*
X94778285Y-103747887D01*
X94887142Y-103747887D01*
X95032285Y-103780544D01*
X95104857Y-103813201D01*
X95177428Y-103878516D01*
X95213714Y-103976487D01*
X95213714Y-104139773D01*
X95213714Y-103453973D02*
X94451714Y-103453973D01*
X95213714Y-103127401D02*
X94451714Y-103127401D01*
X95213714Y-102735516D01*
X94451714Y-102735516D01*
X92673714Y-104792916D02*
X92310857Y-105021516D01*
X92673714Y-105184801D02*
X91911714Y-105184801D01*
X91911714Y-104923544D01*
X91948000Y-104858230D01*
X91984285Y-104825573D01*
X92056857Y-104792916D01*
X92165714Y-104792916D01*
X92238285Y-104825573D01*
X92274571Y-104858230D01*
X92310857Y-104923544D01*
X92310857Y-105184801D01*
X92637428Y-104531658D02*
X92673714Y-104433687D01*
X92673714Y-104270401D01*
X92637428Y-104205087D01*
X92601142Y-104172430D01*
X92528571Y-104139773D01*
X92456000Y-104139773D01*
X92383428Y-104172430D01*
X92347142Y-104205087D01*
X92310857Y-104270401D01*
X92274571Y-104401030D01*
X92238285Y-104466344D01*
X92202000Y-104499001D01*
X92129428Y-104531658D01*
X92056857Y-104531658D01*
X91984285Y-104499001D01*
X91948000Y-104466344D01*
X91911714Y-104401030D01*
X91911714Y-104237744D01*
X91948000Y-104139773D01*
X91911714Y-103943830D02*
X91911714Y-103551944D01*
X92673714Y-103747887D02*
X91911714Y-103747887D01*
X92746285Y-103486630D02*
X92746285Y-102964116D01*
X92601142Y-102408944D02*
X92637428Y-102441601D01*
X92673714Y-102539573D01*
X92673714Y-102604887D01*
X92637428Y-102702858D01*
X92564857Y-102768173D01*
X92492285Y-102800830D01*
X92347142Y-102833487D01*
X92238285Y-102833487D01*
X92093142Y-102800830D01*
X92020571Y-102768173D01*
X91948000Y-102702858D01*
X91911714Y-102604887D01*
X91911714Y-102539573D01*
X91948000Y-102441601D01*
X91984285Y-102408944D01*
X92637428Y-102147687D02*
X92673714Y-102049716D01*
X92673714Y-101886430D01*
X92637428Y-101821116D01*
X92601142Y-101788458D01*
X92528571Y-101755801D01*
X92456000Y-101755801D01*
X92383428Y-101788458D01*
X92347142Y-101821116D01*
X92310857Y-101886430D01*
X92274571Y-102017058D01*
X92238285Y-102082373D01*
X92202000Y-102115030D01*
X92129428Y-102147687D01*
X92056857Y-102147687D01*
X91984285Y-102115030D01*
X91948000Y-102082373D01*
X91911714Y-102017058D01*
X91911714Y-101853773D01*
X91948000Y-101755801D01*
X99531714Y-105282773D02*
X99531714Y-104890887D01*
X100293714Y-105086830D02*
X99531714Y-105086830D01*
X100366285Y-104825573D02*
X100366285Y-104303058D01*
X100293714Y-104139773D02*
X99531714Y-104139773D01*
X100293714Y-103421316D02*
X99930857Y-103649916D01*
X100293714Y-103813201D02*
X99531714Y-103813201D01*
X99531714Y-103551944D01*
X99568000Y-103486630D01*
X99604285Y-103453973D01*
X99676857Y-103421316D01*
X99785714Y-103421316D01*
X99858285Y-103453973D01*
X99894571Y-103486630D01*
X99930857Y-103551944D01*
X99930857Y-103813201D01*
X100366285Y-102670201D02*
X100330000Y-102735516D01*
X100257428Y-102800830D01*
X100148571Y-102898801D01*
X100112285Y-102964116D01*
X100112285Y-103029430D01*
X100293714Y-102996773D02*
X100257428Y-103062087D01*
X100184857Y-103127401D01*
X100039714Y-103160058D01*
X99785714Y-103160058D01*
X99640571Y-103127401D01*
X99568000Y-103062087D01*
X99531714Y-102996773D01*
X99531714Y-102866144D01*
X99568000Y-102800830D01*
X99640571Y-102735516D01*
X99785714Y-102702858D01*
X100039714Y-102702858D01*
X100184857Y-102735516D01*
X100257428Y-102800830D01*
X100293714Y-102866144D01*
X100293714Y-102996773D01*
X72281142Y-104792916D02*
X72317428Y-104825573D01*
X72353714Y-104923544D01*
X72353714Y-104988858D01*
X72317428Y-105086830D01*
X72244857Y-105152144D01*
X72172285Y-105184801D01*
X72027142Y-105217458D01*
X71918285Y-105217458D01*
X71773142Y-105184801D01*
X71700571Y-105152144D01*
X71628000Y-105086830D01*
X71591714Y-104988858D01*
X71591714Y-104923544D01*
X71628000Y-104825573D01*
X71664285Y-104792916D01*
X72317428Y-104531658D02*
X72353714Y-104433687D01*
X72353714Y-104270401D01*
X72317428Y-104205087D01*
X72281142Y-104172430D01*
X72208571Y-104139773D01*
X72136000Y-104139773D01*
X72063428Y-104172430D01*
X72027142Y-104205087D01*
X71990857Y-104270401D01*
X71954571Y-104401030D01*
X71918285Y-104466344D01*
X71882000Y-104499001D01*
X71809428Y-104531658D01*
X71736857Y-104531658D01*
X71664285Y-104499001D01*
X71628000Y-104466344D01*
X71591714Y-104401030D01*
X71591714Y-104237744D01*
X71628000Y-104139773D01*
X82477428Y-105217458D02*
X82513714Y-105119487D01*
X82513714Y-104956201D01*
X82477428Y-104890887D01*
X82441142Y-104858230D01*
X82368571Y-104825573D01*
X82296000Y-104825573D01*
X82223428Y-104858230D01*
X82187142Y-104890887D01*
X82150857Y-104956201D01*
X82114571Y-105086830D01*
X82078285Y-105152144D01*
X82042000Y-105184801D01*
X81969428Y-105217458D01*
X81896857Y-105217458D01*
X81824285Y-105184801D01*
X81788000Y-105152144D01*
X81751714Y-105086830D01*
X81751714Y-104923544D01*
X81788000Y-104825573D01*
X82441142Y-104139773D02*
X82477428Y-104172430D01*
X82513714Y-104270401D01*
X82513714Y-104335716D01*
X82477428Y-104433687D01*
X82404857Y-104499001D01*
X82332285Y-104531658D01*
X82187142Y-104564316D01*
X82078285Y-104564316D01*
X81933142Y-104531658D01*
X81860571Y-104499001D01*
X81788000Y-104433687D01*
X81751714Y-104335716D01*
X81751714Y-104270401D01*
X81788000Y-104172430D01*
X81824285Y-104139773D01*
X82513714Y-103845858D02*
X81751714Y-103845858D01*
X82513714Y-103453973D02*
X82078285Y-103747887D01*
X81751714Y-103453973D02*
X82187142Y-103845858D01*
X66511715Y-105282773D02*
X67273715Y-105054173D01*
X66511715Y-104825573D01*
X67201143Y-104205087D02*
X67237429Y-104237744D01*
X67273715Y-104335716D01*
X67273715Y-104401030D01*
X67237429Y-104499001D01*
X67164858Y-104564316D01*
X67092286Y-104596973D01*
X66947143Y-104629630D01*
X66838286Y-104629630D01*
X66693143Y-104596973D01*
X66620572Y-104564316D01*
X66548001Y-104499001D01*
X66511715Y-104401030D01*
X66511715Y-104335716D01*
X66548001Y-104237744D01*
X66584286Y-104205087D01*
X67201143Y-103519287D02*
X67237429Y-103551944D01*
X67273715Y-103649916D01*
X67273715Y-103715230D01*
X67237429Y-103813201D01*
X67164858Y-103878516D01*
X67092286Y-103911173D01*
X66947143Y-103943830D01*
X66838286Y-103943830D01*
X66693143Y-103911173D01*
X66620572Y-103878516D01*
X66548001Y-103813201D01*
X66511715Y-103715230D01*
X66511715Y-103649916D01*
X66548001Y-103551944D01*
X66584286Y-103519287D01*
X69088000Y-104825573D02*
X69051714Y-104890887D01*
X69051714Y-104988858D01*
X69088000Y-105086830D01*
X69160571Y-105152144D01*
X69233142Y-105184801D01*
X69378285Y-105217458D01*
X69487142Y-105217458D01*
X69632285Y-105184801D01*
X69704857Y-105152144D01*
X69777428Y-105086830D01*
X69813714Y-104988858D01*
X69813714Y-104923544D01*
X69777428Y-104825573D01*
X69741142Y-104792916D01*
X69487142Y-104792916D01*
X69487142Y-104923544D01*
X69813714Y-104499001D02*
X69051714Y-104499001D01*
X69813714Y-104107116D01*
X69051714Y-104107116D01*
X69813714Y-103780544D02*
X69051714Y-103780544D01*
X69051714Y-103617258D01*
X69088000Y-103519287D01*
X69160571Y-103453973D01*
X69233142Y-103421316D01*
X69378285Y-103388658D01*
X69487142Y-103388658D01*
X69632285Y-103421316D01*
X69704857Y-103453973D01*
X69777428Y-103519287D01*
X69813714Y-103617258D01*
X69813714Y-103780544D01*
X85053715Y-104858230D02*
X85053715Y-105184801D01*
X84291715Y-105184801D01*
X84654572Y-104629630D02*
X84654572Y-104401030D01*
X85053715Y-104303058D02*
X85053715Y-104629630D01*
X84291715Y-104629630D01*
X84291715Y-104303058D01*
X85053715Y-104009144D02*
X84291715Y-104009144D01*
X84291715Y-103845858D01*
X84328001Y-103747887D01*
X84400572Y-103682573D01*
X84473143Y-103649916D01*
X84618286Y-103617258D01*
X84727143Y-103617258D01*
X84872286Y-103649916D01*
X84944858Y-103682573D01*
X85017429Y-103747887D01*
X85053715Y-103845858D01*
X85053715Y-104009144D01*
X77433714Y-105184801D02*
X76671714Y-105184801D01*
X76671714Y-105021516D01*
X76708000Y-104923544D01*
X76780571Y-104858230D01*
X76853142Y-104825573D01*
X76998285Y-104792916D01*
X77107142Y-104792916D01*
X77252285Y-104825573D01*
X77324857Y-104858230D01*
X77397428Y-104923544D01*
X77433714Y-105021516D01*
X77433714Y-105184801D01*
X77361142Y-104107116D02*
X77397428Y-104139773D01*
X77433714Y-104237744D01*
X77433714Y-104303058D01*
X77397428Y-104401030D01*
X77324857Y-104466344D01*
X77252285Y-104499001D01*
X77107142Y-104531658D01*
X76998285Y-104531658D01*
X76853142Y-104499001D01*
X76780571Y-104466344D01*
X76708000Y-104401030D01*
X76671714Y-104303058D01*
X76671714Y-104237744D01*
X76708000Y-104139773D01*
X76744285Y-104107116D01*
%TO.C,D102*%
D12*
X66602380Y-180435476D02*
X65602380Y-180435476D01*
X65602380Y-180197380D01*
X65650000Y-180054523D01*
X65745238Y-179959285D01*
X65840476Y-179911666D01*
X66030952Y-179864047D01*
X66173809Y-179864047D01*
X66364285Y-179911666D01*
X66459523Y-179959285D01*
X66554761Y-180054523D01*
X66602380Y-180197380D01*
X66602380Y-180435476D01*
X66602380Y-178911666D02*
X66602380Y-179483095D01*
X66602380Y-179197380D02*
X65602380Y-179197380D01*
X65745238Y-179292619D01*
X65840476Y-179387857D01*
X65888095Y-179483095D01*
X65602380Y-178292619D02*
X65602380Y-178197380D01*
X65650000Y-178102142D01*
X65697619Y-178054523D01*
X65792857Y-178006904D01*
X65983333Y-177959285D01*
X66221428Y-177959285D01*
X66411904Y-178006904D01*
X66507142Y-178054523D01*
X66554761Y-178102142D01*
X66602380Y-178197380D01*
X66602380Y-178292619D01*
X66554761Y-178387857D01*
X66507142Y-178435476D01*
X66411904Y-178483095D01*
X66221428Y-178530714D01*
X65983333Y-178530714D01*
X65792857Y-178483095D01*
X65697619Y-178435476D01*
X65650000Y-178387857D01*
X65602380Y-178292619D01*
X65697619Y-177578333D02*
X65650000Y-177530714D01*
X65602380Y-177435476D01*
X65602380Y-177197380D01*
X65650000Y-177102142D01*
X65697619Y-177054523D01*
X65792857Y-177006904D01*
X65888095Y-177006904D01*
X66030952Y-177054523D01*
X66602380Y-177625952D01*
X66602380Y-177006904D01*
D14*
X62017142Y-181955714D02*
X61985714Y-181987142D01*
X61891428Y-182018571D01*
X61828571Y-182018571D01*
X61734285Y-181987142D01*
X61671428Y-181924285D01*
X61640000Y-181861428D01*
X61608571Y-181735714D01*
X61608571Y-181641428D01*
X61640000Y-181515714D01*
X61671428Y-181452857D01*
X61734285Y-181390000D01*
X61828571Y-181358571D01*
X61891428Y-181358571D01*
X61985714Y-181390000D01*
X62017142Y-181421428D01*
X62300000Y-182018571D02*
X62300000Y-181358571D01*
X62300000Y-181672857D02*
X62677142Y-181672857D01*
X62677142Y-182018571D02*
X62677142Y-181358571D01*
X62960000Y-181830000D02*
X63274285Y-181830000D01*
X62897142Y-182018571D02*
X63117142Y-181358571D01*
X63337142Y-182018571D01*
X63934285Y-182018571D02*
X63714285Y-181704285D01*
X63557142Y-182018571D02*
X63557142Y-181358571D01*
X63808571Y-181358571D01*
X63871428Y-181390000D01*
X63902857Y-181421428D01*
X63934285Y-181484285D01*
X63934285Y-181578571D01*
X63902857Y-181641428D01*
X63871428Y-181672857D01*
X63808571Y-181704285D01*
X63557142Y-181704285D01*
X64562857Y-181390000D02*
X64500000Y-181358571D01*
X64405714Y-181358571D01*
X64311428Y-181390000D01*
X64248571Y-181452857D01*
X64217142Y-181515714D01*
X64185714Y-181641428D01*
X64185714Y-181735714D01*
X64217142Y-181861428D01*
X64248571Y-181924285D01*
X64311428Y-181987142D01*
X64405714Y-182018571D01*
X64468571Y-182018571D01*
X64562857Y-181987142D01*
X64594285Y-181955714D01*
X64594285Y-181735714D01*
X64468571Y-181735714D01*
X64877142Y-181672857D02*
X65097142Y-181672857D01*
X65191428Y-182018571D02*
X64877142Y-182018571D01*
X64877142Y-181358571D01*
X65191428Y-181358571D01*
%TO.C,KBD101*%
D12*
X96209523Y-180422380D02*
X96209523Y-179422380D01*
X96780952Y-180422380D02*
X96352380Y-179850952D01*
X96780952Y-179422380D02*
X96209523Y-179993809D01*
X97542857Y-179898571D02*
X97685714Y-179946190D01*
X97733333Y-179993809D01*
X97780952Y-180089047D01*
X97780952Y-180231904D01*
X97733333Y-180327142D01*
X97685714Y-180374761D01*
X97590476Y-180422380D01*
X97209523Y-180422380D01*
X97209523Y-179422380D01*
X97542857Y-179422380D01*
X97638095Y-179470000D01*
X97685714Y-179517619D01*
X97733333Y-179612857D01*
X97733333Y-179708095D01*
X97685714Y-179803333D01*
X97638095Y-179850952D01*
X97542857Y-179898571D01*
X97209523Y-179898571D01*
X98209523Y-180422380D02*
X98209523Y-179422380D01*
X98447619Y-179422380D01*
X98590476Y-179470000D01*
X98685714Y-179565238D01*
X98733333Y-179660476D01*
X98780952Y-179850952D01*
X98780952Y-179993809D01*
X98733333Y-180184285D01*
X98685714Y-180279523D01*
X98590476Y-180374761D01*
X98447619Y-180422380D01*
X98209523Y-180422380D01*
X99733333Y-180422380D02*
X99161904Y-180422380D01*
X99447619Y-180422380D02*
X99447619Y-179422380D01*
X99352380Y-179565238D01*
X99257142Y-179660476D01*
X99161904Y-179708095D01*
X100352380Y-179422380D02*
X100447619Y-179422380D01*
X100542857Y-179470000D01*
X100590476Y-179517619D01*
X100638095Y-179612857D01*
X100685714Y-179803333D01*
X100685714Y-180041428D01*
X100638095Y-180231904D01*
X100590476Y-180327142D01*
X100542857Y-180374761D01*
X100447619Y-180422380D01*
X100352380Y-180422380D01*
X100257142Y-180374761D01*
X100209523Y-180327142D01*
X100161904Y-180231904D01*
X100114285Y-180041428D01*
X100114285Y-179803333D01*
X100161904Y-179612857D01*
X100209523Y-179517619D01*
X100257142Y-179470000D01*
X100352380Y-179422380D01*
X101638095Y-180422380D02*
X101066666Y-180422380D01*
X101352380Y-180422380D02*
X101352380Y-179422380D01*
X101257142Y-179565238D01*
X101161904Y-179660476D01*
X101066666Y-179708095D01*
D15*
X76090000Y-180805714D02*
X76058571Y-180837142D01*
X75964285Y-180868571D01*
X75901428Y-180868571D01*
X75807142Y-180837142D01*
X75744285Y-180774285D01*
X75712857Y-180711428D01*
X75681428Y-180585714D01*
X75681428Y-180491428D01*
X75712857Y-180365714D01*
X75744285Y-180302857D01*
X75807142Y-180240000D01*
X75901428Y-180208571D01*
X75964285Y-180208571D01*
X76058571Y-180240000D01*
X76090000Y-180271428D01*
X76341428Y-180271428D02*
X76372857Y-180240000D01*
X76435714Y-180208571D01*
X76592857Y-180208571D01*
X76655714Y-180240000D01*
X76687142Y-180271428D01*
X76718571Y-180334285D01*
X76718571Y-180397142D01*
X76687142Y-180491428D01*
X76310000Y-180868571D01*
X76718571Y-180868571D01*
X78640000Y-180893571D02*
X78420000Y-180579285D01*
X78262857Y-180893571D02*
X78262857Y-180233571D01*
X78514285Y-180233571D01*
X78577142Y-180265000D01*
X78608571Y-180296428D01*
X78640000Y-180359285D01*
X78640000Y-180453571D01*
X78608571Y-180516428D01*
X78577142Y-180547857D01*
X78514285Y-180579285D01*
X78262857Y-180579285D01*
X79268571Y-180893571D02*
X78891428Y-180893571D01*
X79080000Y-180893571D02*
X79080000Y-180233571D01*
X79017142Y-180327857D01*
X78954285Y-180390714D01*
X78891428Y-180422142D01*
X81165000Y-180830714D02*
X81133571Y-180862142D01*
X81039285Y-180893571D01*
X80976428Y-180893571D01*
X80882142Y-180862142D01*
X80819285Y-180799285D01*
X80787857Y-180736428D01*
X80756428Y-180610714D01*
X80756428Y-180516428D01*
X80787857Y-180390714D01*
X80819285Y-180327857D01*
X80882142Y-180265000D01*
X80976428Y-180233571D01*
X81039285Y-180233571D01*
X81133571Y-180265000D01*
X81165000Y-180296428D01*
X81793571Y-180893571D02*
X81416428Y-180893571D01*
X81605000Y-180893571D02*
X81605000Y-180233571D01*
X81542142Y-180327857D01*
X81479285Y-180390714D01*
X81416428Y-180422142D01*
X83815000Y-180893571D02*
X83595000Y-180579285D01*
X83437857Y-180893571D02*
X83437857Y-180233571D01*
X83689285Y-180233571D01*
X83752142Y-180265000D01*
X83783571Y-180296428D01*
X83815000Y-180359285D01*
X83815000Y-180453571D01*
X83783571Y-180516428D01*
X83752142Y-180547857D01*
X83689285Y-180579285D01*
X83437857Y-180579285D01*
X84380714Y-180453571D02*
X84380714Y-180893571D01*
X84223571Y-180202142D02*
X84066428Y-180673571D01*
X84475000Y-180673571D01*
X86240000Y-180805714D02*
X86208571Y-180837142D01*
X86114285Y-180868571D01*
X86051428Y-180868571D01*
X85957142Y-180837142D01*
X85894285Y-180774285D01*
X85862857Y-180711428D01*
X85831428Y-180585714D01*
X85831428Y-180491428D01*
X85862857Y-180365714D01*
X85894285Y-180302857D01*
X85957142Y-180240000D01*
X86051428Y-180208571D01*
X86114285Y-180208571D01*
X86208571Y-180240000D01*
X86240000Y-180271428D01*
X86460000Y-180208571D02*
X86868571Y-180208571D01*
X86648571Y-180460000D01*
X86742857Y-180460000D01*
X86805714Y-180491428D01*
X86837142Y-180522857D01*
X86868571Y-180585714D01*
X86868571Y-180742857D01*
X86837142Y-180805714D01*
X86805714Y-180837142D01*
X86742857Y-180868571D01*
X86554285Y-180868571D01*
X86491428Y-180837142D01*
X86460000Y-180805714D01*
X88765000Y-180868571D02*
X88545000Y-180554285D01*
X88387857Y-180868571D02*
X88387857Y-180208571D01*
X88639285Y-180208571D01*
X88702142Y-180240000D01*
X88733571Y-180271428D01*
X88765000Y-180334285D01*
X88765000Y-180428571D01*
X88733571Y-180491428D01*
X88702142Y-180522857D01*
X88639285Y-180554285D01*
X88387857Y-180554285D01*
X88985000Y-180208571D02*
X89393571Y-180208571D01*
X89173571Y-180460000D01*
X89267857Y-180460000D01*
X89330714Y-180491428D01*
X89362142Y-180522857D01*
X89393571Y-180585714D01*
X89393571Y-180742857D01*
X89362142Y-180805714D01*
X89330714Y-180837142D01*
X89267857Y-180868571D01*
X89079285Y-180868571D01*
X89016428Y-180837142D01*
X88985000Y-180805714D01*
X91340000Y-180868571D02*
X91120000Y-180554285D01*
X90962857Y-180868571D02*
X90962857Y-180208571D01*
X91214285Y-180208571D01*
X91277142Y-180240000D01*
X91308571Y-180271428D01*
X91340000Y-180334285D01*
X91340000Y-180428571D01*
X91308571Y-180491428D01*
X91277142Y-180522857D01*
X91214285Y-180554285D01*
X90962857Y-180554285D01*
X91591428Y-180271428D02*
X91622857Y-180240000D01*
X91685714Y-180208571D01*
X91842857Y-180208571D01*
X91905714Y-180240000D01*
X91937142Y-180271428D01*
X91968571Y-180334285D01*
X91968571Y-180397142D01*
X91937142Y-180491428D01*
X91560000Y-180868571D01*
X91968571Y-180868571D01*
%TD*%
M02*
