M48
; DRILL file {KiCad (5.1.12)-1} date 05/09/22 22:55:42
; FORMAT={-:-/ absolute / metric / decimal}
; #@! TF.CreationDate,2022-05-09T22:55:42+02:00
; #@! TF.GenerationSoftware,Kicad,Pcbnew,(5.1.12)-1
; #@! TF.FileFunction,Plated,1,2,PTH
FMAT,2
METRIC
T1C0.250
T2C0.400
T3C0.500
T4C0.600
T5C0.762
T6C1.000
T7C1.520
%
G90
G05
T2
X62.7Y-60.96
X63.043Y-123.787
X63.679Y-169.429
X65.405Y-101.6
X66.675Y-78.105
X68.016Y-74.275
X69.85Y-100.965
X70.764Y-59.741
X71.234Y-71.615
X71.755Y-105.143
X73.025Y-72.39
X73.787Y-33.21
X75.171Y-31.026
X75.298Y-27.483
X76.365Y-45.555
X76.949Y-35.649
X77.47Y-64.77
X77.47Y-70.485
X77.47Y-141.605
X78.47Y-35.447
X79.324Y-32.715
X79.471Y-50.953
X79.743Y-47.523
X80.01Y-71.12
X80.01Y-93.98
X80.01Y-142.875
X80.378Y-55.347
X80.408Y-106.037
X80.83Y-44.17
X81.496Y-52.819
X82.55Y-142.875
X82.588Y-78.854
X82.642Y-99.99
X82.661Y-53.248
X82.696Y-48.235
X82.956Y-104.457
X83.447Y-42.285
X83.602Y-28.504
X83.602Y-36.234
X83.747Y-45.873
X84.213Y-41.511
X85.09Y-142.875
X85.815Y-80.543
X85.839Y-68.389
X85.877Y-82.753
X86.169Y-56.388
X86.643Y-77.63
X86.71Y-54.229
X87.211Y-100.597
X87.435Y-47.671
X87.549Y-36.402
X87.63Y-86.995
X87.63Y-93.345
X87.63Y-142.875
X87.739Y-43.399
X87.9Y-84.77
X88.852Y-44.119
X89.043Y-57.8
X89.702Y-45.738
X90.17Y-142.875
X90.678Y-32.906
X91.097Y-41.58
X91.214Y-51.658
X92.27Y-84.266
X92.431Y-87.211
X92.539Y-45.814
X92.71Y-26.86
X92.729Y-52.139
X93.019Y-64.157
X95.161Y-55.791
X95.923Y-100.736
X96.056Y-46.543
X96.565Y-39.608
X97.003Y-43.028
X98.146Y-84.658
X98.781Y-55.867
X98.868Y-52.139
X99.62Y-36.856
X99.959Y-40.566
X100.116Y-35.799
X100.125Y-39.402
X100.749Y-52.057
X100.948Y-53.435
X100.952Y-77.051
X101.054Y-26.746
X101.465Y-42.351
X102.088Y-32.546
X102.519Y-98.71
X102.883Y-55.093
X103.583Y-51.133
T5
X67.31Y-107.95
X69.85Y-107.95
X72.39Y-107.95
X73.645Y-178.317
X74.93Y-107.95
X76.185Y-178.317
X77.47Y-107.95
X78.725Y-178.317
X80.01Y-107.95
X81.265Y-178.317
X82.55Y-107.95
X83.805Y-178.317
X85.09Y-107.95
X86.345Y-178.317
X87.63Y-107.95
X88.885Y-178.317
X90.17Y-107.95
X91.425Y-178.317
X92.71Y-107.95
X93.965Y-178.317
X95.25Y-107.95
X97.79Y-107.95
X100.33Y-107.95
T6
X62.15Y-31.47
X62.15Y-34.01
X62.15Y-36.55
X62.15Y-39.09
X62.15Y-41.63
X62.15Y-44.17
X62.15Y-46.71
X62.15Y-49.25
X62.15Y-51.79
X62.15Y-54.33
X68.65Y-31.47
X68.65Y-34.01
X68.65Y-36.55
X68.65Y-39.09
X68.65Y-41.63
X68.65Y-44.17
X68.65Y-46.71
X68.65Y-49.25
X68.65Y-51.79
X68.65Y-54.33
T7
X103.15Y-64.98
X103.15Y-70.06
X103.15Y-75.14
X103.15Y-80.22
T1
G00X94.445Y-33.978
M15
G01X94.445Y-33.978
M16
G05
G00X94.445Y-35.451
M15
G01X94.445Y-35.451
M16
G05
G00X95.156Y-33.165
M15
G01X95.156Y-33.165
M16
G05
G00X95.156Y-34.638
M15
G01X95.156Y-34.638
M16
G05
G00X95.207Y-36.162
M15
G01X95.207Y-36.162
M16
G05
G00X95.918Y-33.978
M15
G01X95.918Y-33.978
M16
G05
G00X95.969Y-35.451
M15
G01X95.969Y-35.451
M16
G05
G00X96.68Y-33.165
M15
G01X96.68Y-33.165
M16
G05
G00X96.68Y-34.689
M15
G01X96.68Y-34.689
M16
G05
G00X96.68Y-36.162
M15
G01X96.68Y-36.162
M16
G05
G00X97.442Y-33.978
M15
G01X97.442Y-33.978
M16
G05
G00X97.442Y-35.451
M15
G01X97.442Y-35.451
M16
G05
T3
G00X64.575Y-91.565
M15
G01X65.775Y-91.565
M16
G05
G00X64.575Y-100.205
M15
G01X65.775Y-100.205
M16
G05
T4
G00X60.695Y-91.565
M15
G01X61.295Y-91.565
M16
G05
G00X60.695Y-100.205
M15
G01X61.295Y-100.205
M16
G05
T6
G00X96.15Y-93.22
M15
G01X96.15Y-91.22
M16
G05
G00X100.15Y-96.92
M15
G01X98.15Y-96.92
M16
G05
G00X102.15Y-93.22
M15
G01X102.15Y-91.22
M16
G05
T0
M30
